<svg width="122" height="32" viewBox="0 0 122 32" fill="none" xmlns="http://www.w3.org/2000/svg">
<g clip-path="url(#clip0_815_8823)">
<path d="M105.823 32C105.444 32.0023 105.07 31.9135 104.733 31.7412C104.577 31.6835 104.444 31.5782 104.351 31.4402C104.02 31.6284 103.645 31.7276 103.264 31.7282C102.669 31.73 102.097 31.4975 101.672 31.0811L101.449 30.8578C101.29 30.7025 101.125 30.5343 100.986 30.3919C100.709 30.1056 100.511 29.751 100.415 29.3641C100.318 28.9772 100.326 28.5717 100.436 28.1885C100.049 28.3044 99.6377 28.3129 99.2462 28.2132C98.8546 28.1135 98.4976 27.9092 98.2132 27.6222L97.9899 27.4022C97.8378 27.2534 97.6858 27.1013 97.5434 26.9492C97.2621 26.6652 97.0622 26.311 96.9643 25.9235C96.8664 25.536 96.8742 25.1293 96.9869 24.7458H96.9221C96.7355 24.7902 96.5445 24.813 96.3527 24.8138C95.7923 24.8129 95.2533 24.5989 94.8449 24.2152C94.5861 23.966 94.324 23.7169 94.0716 23.4483C93.8063 23.162 93.6195 22.8119 93.5294 22.432C93.4392 22.0522 93.4488 21.6555 93.5571 21.2805C93.353 21.3393 93.1418 21.3698 92.9294 21.3711C92.6329 21.3745 92.3387 21.319 92.0638 21.2079C91.7889 21.0969 91.5387 20.9324 91.3278 20.724L90.6807 20.0768C90.3432 19.7315 90.1237 19.288 90.054 18.8102C89.9842 18.3323 90.0677 17.8446 90.2924 17.4172C90.1952 17.3604 90.1069 17.2895 90.0303 17.2069C89.0061 16.2066 88.2088 14.9978 87.6924 13.6625C87.176 12.3272 86.9527 10.8965 87.0374 9.46734C87.0908 8.31382 87.3482 7.1789 87.7978 6.11527C88.6295 4.122 90.0849 2.45203 91.9458 1.35571C92.9249 0.767011 94.0025 0.360325 95.1264 0.155308C95.5455 0.0701913 95.9707 0.0182608 96.398 0L97.6599 0C98.7621 0.0549156 99.8468 0.298985 100.866 0.721537C102.167 1.26255 103.34 2.07052 104.309 3.09323C104.34 3.12187 104.367 3.15451 104.39 3.19029L104.594 2.98969C105.15 2.4147 105.773 1.90947 106.451 1.48514C107.488 0.830857 108.64 0.379576 109.845 0.155308C110.257 0.0711815 110.674 0.0192549 111.094 0L112.32 0C113.693 0.0692305 115.035 0.429903 116.258 1.05804C117.554 1.71742 118.691 2.65072 119.591 3.79325C120.49 4.93578 121.131 6.26023 121.467 7.67482C121.699 8.65226 121.787 9.65849 121.726 10.6613C121.576 13.196 120.459 15.5767 118.607 17.3137L118.423 17.4722C118.626 17.9059 118.695 18.3909 118.619 18.8641C118.544 19.3372 118.327 19.7767 117.999 20.1254C117.821 20.3163 117.643 20.4942 117.452 20.6754C117.004 21.0932 116.414 21.3246 115.802 21.3225C115.568 21.3221 115.336 21.2883 115.113 21.2222C115.234 21.6287 115.248 22.06 115.151 22.4732C115.055 22.8864 114.852 23.2672 114.563 23.5778C114.352 23.801 114.139 24.0146 113.915 24.2249C113.501 24.6262 112.946 24.8502 112.369 24.8493C112.177 24.8488 111.985 24.8238 111.799 24.7749C111.863 24.9616 111.905 25.1548 111.926 25.3509C111.954 25.658 111.908 25.9675 111.793 26.2536C111.67 26.572 111.482 26.8608 111.24 27.1013L111.065 27.2825C110.939 27.4119 110.809 27.5414 110.683 27.6578C110.454 27.8827 110.182 28.0602 109.884 28.1802C109.586 28.3001 109.267 28.3601 108.946 28.3567C108.83 28.3566 108.714 28.3501 108.599 28.3373H108.519C108.556 28.4429 108.587 28.551 108.609 28.6609C108.688 29.046 108.672 29.4445 108.562 29.8221C108.453 30.1997 108.254 30.5451 107.981 30.8287C107.813 31.0099 107.632 31.1911 107.454 31.3561C107.013 31.7717 106.429 32.0022 105.823 32V32Z" fill="#6200EE"/>
<path d="M121.26 7.72337C120.93 6.33887 120.302 5.04277 119.421 3.92483C118.54 2.80689 117.427 1.89385 116.158 1.24895C114.971 0.638561 113.669 0.285728 112.337 0.213563H111.101C110.692 0.231881 110.285 0.282733 109.884 0.365636C108.705 0.581601 107.578 1.02089 106.564 1.65987C105.9 2.07497 105.288 2.56933 104.743 3.13207L104.393 3.48475L104.222 3.31002C104.202 3.28278 104.179 3.25783 104.154 3.23561C103.207 2.23242 102.059 1.44071 100.785 0.912451C99.7975 0.503054 98.7472 0.264539 97.6793 0.207092H96.4207C96.0031 0.224655 95.5876 0.275508 95.1782 0.359165C94.0807 0.560992 93.0285 0.95885 92.072 1.53368C90.2477 2.60609 88.8214 4.24248 88.0081 6.19617C87.5666 7.23787 87.3146 8.35003 87.2639 9.4803C87.1803 10.8803 87.3995 12.2819 87.9065 13.5896C88.4135 14.8973 89.1964 16.0803 90.2018 17.0581C90.2493 17.1198 90.3093 17.1707 90.3779 17.2076C90.4465 17.2444 90.5222 17.2662 90.5998 17.2716C90.6234 17.269 90.6464 17.2624 90.6678 17.2522C90.3746 17.6462 90.2318 18.1319 90.265 18.6219C90.2982 19.1119 90.5053 19.5739 90.849 19.9248L91.1984 20.2775L91.4928 20.5719C91.8118 20.8916 92.2276 21.0967 92.6754 21.1552C93.1231 21.2137 93.5777 21.1224 93.9681 20.8955C93.7511 21.2762 93.6606 21.716 93.7094 22.1514C93.7582 22.5869 93.944 22.9957 94.2399 23.3189C94.4922 23.581 94.7511 23.8301 95.0035 24.0728C95.3729 24.421 95.8612 24.6154 96.3689 24.6164C96.5442 24.6146 96.7189 24.5939 96.8898 24.5549C97.0681 24.5133 97.2392 24.4457 97.3978 24.3543C97.1767 24.7418 97.0886 25.1911 97.147 25.6335C97.2055 26.0758 97.4072 26.4868 97.7214 26.8037C97.8637 26.9525 98.0126 27.1013 98.1614 27.2502L98.3879 27.4734C98.5753 27.6629 98.7986 27.8131 99.0447 27.9153C99.2908 28.0176 99.5548 28.0697 99.8213 28.0688C100.191 28.0673 100.553 27.9656 100.87 27.7743C100.641 28.1617 100.546 28.6134 100.599 29.0601C100.652 29.5068 100.851 29.9236 101.164 30.2463C101.31 30.4016 101.465 30.5699 101.62 30.7058L101.847 30.929C102.23 31.3082 102.748 31.52 103.287 31.5179C103.71 31.5173 104.122 31.3825 104.464 31.1329L104.506 31.2397C104.538 31.3155 104.586 31.3836 104.646 31.4395C104.706 31.4953 104.778 31.5375 104.856 31.5632C105.256 31.7636 105.708 31.8371 106.152 31.7741C106.595 31.7111 107.009 31.5145 107.338 31.2105C107.512 31.0487 107.69 30.8708 107.852 30.6961C108.097 30.4324 108.274 30.1132 108.368 29.7661C108.462 29.4189 108.47 29.0541 108.392 28.7029C108.338 28.4454 108.237 28.1998 108.095 27.9782C108.257 28.0641 108.434 28.121 108.616 28.1464C108.723 28.1592 108.831 28.1657 108.939 28.1658C109.234 28.1683 109.527 28.1124 109.8 28.0013C110.073 27.8903 110.322 27.7262 110.531 27.5187C110.654 27.4055 110.78 27.2761 110.906 27.1466L111.084 26.9654C111.307 26.7515 111.482 26.4937 111.599 26.2083C111.702 25.953 111.744 25.6771 111.722 25.4026C111.687 25.051 111.576 24.7111 111.398 24.4061C111.695 24.571 112.029 24.6589 112.369 24.6617C112.891 24.6633 113.393 24.46 113.767 24.0955C113.99 23.8852 114.2 23.6748 114.414 23.4483C114.737 23.1029 114.941 22.6626 114.995 22.1925C115.05 21.7223 114.951 21.2472 114.715 20.8372C115.047 21.0297 115.424 21.1302 115.808 21.1284C116.366 21.1281 116.903 20.9152 117.31 20.5331C117.501 20.3551 117.675 20.1804 117.85 19.9927C118.169 19.6573 118.373 19.2287 118.431 18.7694C118.489 18.3101 118.399 17.8443 118.174 17.4399L118.465 17.1584C120.278 15.4589 121.37 13.1289 121.516 10.6483C121.576 9.66608 121.49 8.68033 121.26 7.72337V7.72337Z" fill="#6200EE"/>
<path d="M108.955 27.9814C108.853 27.9813 108.75 27.9748 108.648 27.962C108.406 27.932 108.175 27.8432 107.975 27.7031C107.899 27.6545 107.838 27.5851 107.8 27.5031C107.763 27.421 107.749 27.3299 107.761 27.2404C107.761 27.179 107.778 27.124 107.787 27.069C107.797 27.014 107.803 26.9719 107.81 26.9234C107.879 26.6169 107.85 26.2964 107.726 26.0077C107.583 25.6124 107.349 25.2559 107.044 24.9667C106.739 24.6774 106.371 24.4633 105.969 24.3414C105.752 24.2741 105.526 24.2392 105.299 24.2378C105.191 24.239 105.083 24.2476 104.976 24.2637L104.762 24.2863C104.704 24.294 104.645 24.2884 104.589 24.2699C104.534 24.2515 104.483 24.2208 104.441 24.18C104.399 24.1393 104.367 24.0895 104.347 24.0345C104.327 23.9795 104.319 23.9207 104.325 23.8625C104.327 23.7883 104.337 23.7146 104.354 23.6425C104.427 23.0317 104.277 22.415 103.931 21.9065C103.585 21.3979 103.066 21.0319 102.471 20.876C102.26 20.8187 102.043 20.7893 101.824 20.7887C101.698 20.7883 101.573 20.7992 101.449 20.821C101.394 20.8347 101.337 20.8423 101.28 20.8437C101.22 20.849 101.16 20.8403 101.104 20.8184C101.048 20.7965 100.997 20.762 100.957 20.7175C100.914 20.6597 100.884 20.5933 100.87 20.5229C100.855 20.4525 100.856 20.3798 100.873 20.3098C100.937 19.9459 100.921 19.5722 100.825 19.2152C100.729 18.8583 100.556 18.5268 100.317 18.2443C100.079 17.9618 99.7815 17.7352 99.4458 17.5805C99.1101 17.4258 98.7445 17.3469 98.3749 17.3492C98.2374 17.3494 98.1001 17.3591 97.964 17.3784C97.9263 17.3813 97.8884 17.3813 97.8507 17.3784H97.8216H97.7698C97.677 17.3634 97.5929 17.315 97.5333 17.2423C97.4737 17.1696 97.4427 17.0776 97.4463 16.9836C97.443 16.9192 97.4506 16.8546 97.4689 16.7927C97.5186 16.4503 97.4975 16.1012 97.4067 15.7673C97.316 15.4334 97.1577 15.1216 96.9415 14.8514C96.737 14.5907 96.4826 14.3735 96.1932 14.2124C95.9037 14.0513 95.585 13.9495 95.2558 13.913C95.1484 13.9004 95.0404 13.8939 94.9322 13.8936C94.2952 13.8918 93.6817 14.1338 93.2174 14.5699C93.0912 14.6896 92.9715 14.8061 92.855 14.9258L90.8586 16.9286C90.7616 17.0257 90.6968 17.0904 90.5868 17.0904C90.4768 17.0904 90.4153 17.0257 90.3312 16.9448C89.3427 15.9848 88.5725 14.8234 88.0728 13.5393C87.5731 12.2552 87.3557 10.8785 87.4354 9.50293C87.486 8.39732 87.7325 7.30947 88.1634 6.28999C88.9608 4.36702 90.3608 2.75476 92.1529 1.69545C93.0905 1.13284 94.1219 0.743753 95.1975 0.546817C95.5933 0.466579 95.9946 0.416821 96.3979 0.39798H97.6598C98.7103 0.45089 99.7437 0.685151 100.714 1.0904C101.968 1.61113 103.098 2.39063 104.031 3.37796L104.086 3.44591L104.218 3.57533L100.717 7.09242C100.416 7.39478 100.193 7.76716 100.07 8.17634C99.9684 8.51747 99.9388 8.8761 99.9834 9.22933C100.028 9.58255 100.146 9.92259 100.329 10.2277C100.506 10.5252 100.742 10.7829 101.023 10.9845C101.305 11.1861 101.625 11.3272 101.963 11.399C102.156 11.438 102.352 11.4586 102.549 11.4605C102.879 11.4601 103.205 11.3921 103.508 11.2608C103.811 11.1295 104.083 10.9376 104.309 10.6969L105.911 9.09849C106.441 8.56461 106.972 8.03074 107.512 7.49687C107.596 7.39009 107.68 7.28655 107.836 7.28655C107.897 7.29074 107.957 7.30933 108.009 7.34081C108.062 7.37229 108.107 7.41578 108.14 7.46775L117.562 16.9545C117.649 17.0419 117.737 17.1292 117.824 17.2295C118.13 17.6073 118.287 18.0838 118.266 18.5695C118.246 19.0551 118.048 19.5164 117.711 19.8665C117.539 20.051 117.368 20.2257 117.183 20.3972C116.804 20.7553 116.299 20.9512 115.777 20.9434C115.255 20.9355 114.757 20.7245 114.388 20.3551L106.558 12.4991C106.512 12.4454 106.461 12.3966 106.406 12.3535L106.328 12.3179C106.304 12.3184 106.281 12.3266 106.263 12.3412C106.244 12.3558 106.231 12.376 106.224 12.3988C106.224 12.4247 106.208 12.4473 106.26 12.5153C106.289 12.5489 106.32 12.5803 106.354 12.6091L114.119 20.4036C114.174 20.4586 114.236 20.5169 114.288 20.5784C114.63 20.9543 114.818 21.4451 114.815 21.9534C114.812 22.4617 114.618 22.9502 114.271 23.3221C114.064 23.5422 113.854 23.7525 113.624 23.9693C113.281 24.2984 112.822 24.48 112.346 24.4752C111.87 24.4703 111.415 24.2795 111.078 23.9434L103.115 15.9418C103.057 15.8868 103.002 15.8318 102.947 15.7865H102.837C102.818 15.7997 102.805 15.8185 102.798 15.84C102.791 15.8615 102.791 15.8847 102.798 15.9062L102.918 16.0421L110.796 23.9434C110.943 24.0855 111.074 24.244 111.185 24.4158C111.379 24.7155 111.5 25.057 111.537 25.4123C111.557 25.6547 111.52 25.8982 111.431 26.1242C111.334 26.397 111.181 26.6462 110.981 26.8554L110.796 27.0431C110.677 27.166 110.554 27.2922 110.434 27.4055C110.238 27.5945 110.006 27.7428 109.752 27.8417C109.499 27.9406 109.228 27.988 108.955 27.9814V27.9814Z" fill="#B5F456"/>
<path d="M118.122 17.1098C118.074 17.1007 118.028 17.0808 117.989 17.0517C117.95 17.0225 117.918 16.9849 117.895 16.9416C116.475 15.56 108.305 7.35127 108.137 7.13448L108.059 7.03094L108.127 6.92417C108.17 6.86054 108.22 6.80193 108.276 6.74945C108.308 6.72059 108.339 6.68921 108.366 6.65561C108.382 6.64174 108.393 6.62374 108.399 6.60369C108.405 6.58364 108.405 6.56237 108.399 6.54237C108.392 6.52472 108.381 6.50897 108.367 6.49654C108.353 6.48411 108.336 6.4754 108.318 6.47118L108.23 6.50031C108.205 6.52016 108.181 6.54178 108.159 6.56502C108.13 6.59846 108.098 6.62882 108.062 6.65561L104.235 10.4995C104.123 10.6168 104.001 10.725 103.872 10.8231C103.477 11.1041 103.004 11.2555 102.52 11.2566C101.986 11.2553 101.469 11.0698 101.056 10.7314C100.644 10.393 100.361 9.92247 100.255 9.39939C100.146 8.9363 100.207 8.44961 100.426 8.0275C100.639 7.62589 100.911 7.25924 101.235 6.94035C101.436 6.73003 101.643 6.52295 101.85 6.31911L102.154 6.0182C103.07 5.09606 103.979 4.18686 104.882 3.26795C105.417 2.7148 106.018 2.2291 106.671 1.82164C107.66 1.19743 108.758 0.764956 109.907 0.546817C110.295 0.467571 110.689 0.417817 111.084 0.39798H112.311C113.62 0.467678 114.9 0.812768 116.067 1.41072C117.313 2.04363 118.407 2.93967 119.273 4.03686C120.139 5.13406 120.756 6.40623 121.082 7.76542C121.305 8.70472 121.388 9.67184 121.328 10.6354C121.185 13.069 120.114 15.355 118.335 17.0224L118.264 17.0936L118.122 17.1098Z" fill="#B5F456"/>
<path d="M96.3526 24.4287C95.8973 24.427 95.4594 24.2537 95.1263 23.9434C94.8642 23.6942 94.6119 23.4516 94.366 23.1927C94.0393 22.8394 93.86 22.3745 93.8648 21.8933C93.8697 21.4121 94.0582 20.951 94.3918 20.6042L96.7279 18.2649C97.0469 17.9345 97.4588 17.7088 97.9089 17.6178C98.0747 17.5748 98.2459 17.5574 98.4169 17.566C98.952 17.5638 99.4711 17.7484 99.8846 18.0881C100.298 18.4278 100.58 18.9011 100.682 19.4265C100.765 19.7923 100.755 20.1733 100.652 20.5342C100.549 20.895 100.357 21.2241 100.093 21.4908C99.9732 21.6267 99.8373 21.7561 99.7047 21.8888L99.5073 22.0764L97.7148 23.8592C97.4754 24.1123 97.1672 24.29 96.8282 24.3705C96.6725 24.4081 96.5129 24.4277 96.3526 24.4287V24.4287Z" fill="#B5F456"/>
<path d="M103.264 31.3302C102.779 31.3283 102.315 31.1366 101.97 30.7964L101.743 30.5731C101.588 30.421 101.436 30.2689 101.29 30.1104C100.954 29.7634 100.766 29.2992 100.766 28.8162C100.766 28.3331 100.954 27.869 101.29 27.5219L103.662 25.1438C103.876 24.9279 104.131 24.7566 104.412 24.64C104.693 24.5234 104.995 24.4637 105.299 24.4643C105.827 24.467 106.339 24.649 106.751 24.9805C107.162 25.3121 107.449 25.7735 107.564 26.2892C107.599 26.4618 107.616 26.6373 107.616 26.8133C107.622 27.1097 107.567 27.4041 107.456 27.6789C107.345 27.9536 107.179 28.2029 106.969 28.4117C106.173 29.2239 105.374 30.0295 104.565 30.8255C104.214 31.1585 103.747 31.3398 103.264 31.3302V31.3302Z" fill="#B5F456"/>
<path d="M99.7986 27.8811C99.5578 27.8812 99.3194 27.8335 99.0973 27.7407C98.8751 27.648 98.6735 27.512 98.5043 27.3407L98.2843 27.124C98.1355 26.9751 97.9802 26.8231 97.8346 26.6677C97.489 26.3198 97.295 25.8493 97.295 25.3589C97.295 24.8686 97.489 24.3981 97.8346 24.0502L100.19 21.6785C100.451 21.4403 100.758 21.258 101.091 21.1428C101.425 21.0276 101.779 20.982 102.131 21.0087C102.934 21.0087 103.943 21.8079 104.115 22.95C104.183 23.3095 104.161 23.6803 104.051 24.0292C103.941 24.3781 103.746 24.6943 103.484 24.9496C102.944 25.4997 102.397 26.0465 101.866 26.5901L101.128 27.3278C100.954 27.5035 100.747 27.6429 100.519 27.7379C100.291 27.8328 100.046 27.8815 99.7986 27.8811V27.8811Z" fill="#B5F456"/>
<path d="M92.9294 20.986C92.6844 20.9872 92.4415 20.9397 92.2149 20.8464C91.9884 20.7531 91.7825 20.6158 91.6093 20.4425L90.9622 19.7954C90.6176 19.445 90.4244 18.9732 90.4244 18.4817C90.4244 17.9902 90.6176 17.5184 90.9622 17.1681C91.4669 16.6568 91.9782 16.1456 92.4862 15.6376L93.3306 14.7931C93.5429 14.582 93.7956 14.4159 94.0736 14.3047C94.3516 14.1935 94.6491 14.1395 94.9484 14.146C95.2556 14.1382 95.5612 14.1923 95.8471 14.3052C96.1329 14.418 96.393 14.5873 96.6119 14.803C96.8309 15.0186 97.0041 15.2761 97.1214 15.5601C97.2386 15.8442 97.2974 16.1489 97.2942 16.4562C97.2968 16.757 97.2389 17.0553 97.1238 17.3332C97.0087 17.6111 96.8389 17.8631 96.6245 18.074L94.2657 20.4392C94.0909 20.6151 93.8825 20.7541 93.653 20.8481C93.4235 20.942 93.1774 20.9889 92.9294 20.986V20.986Z" fill="#B5F456"/>
<path d="M105.823 31.602C105.498 31.602 105.177 31.5243 104.888 31.3755C104.837 31.359 104.79 31.332 104.75 31.2964C104.71 31.2608 104.678 31.2172 104.655 31.1685L104.613 31.0584L104.697 30.9711C104.75 30.9098 104.808 30.8525 104.869 30.7996L105.594 30.0684C106.05 29.6089 106.506 29.1462 106.969 28.69C107.172 28.4988 107.348 28.2811 107.493 28.0429C107.514 28.0021 107.546 27.9674 107.584 27.942C107.623 27.9165 107.667 27.9012 107.713 27.8973C107.761 27.9006 107.807 27.9168 107.846 27.9442C107.885 27.9715 107.916 28.009 107.936 28.0526C108.077 28.2599 108.174 28.4931 108.224 28.7385C108.292 29.0629 108.279 29.399 108.187 29.7173C108.094 30.0356 107.925 30.3262 107.693 30.5634C107.535 30.7349 107.37 30.9096 107.189 31.0682C106.819 31.4145 106.33 31.6056 105.823 31.602V31.602Z" fill="#B5F456"/>
<path d="M121.26 7.72337C120.93 6.33887 120.302 5.04277 119.421 3.92483C118.54 2.80689 117.427 1.89385 116.158 1.24895C114.971 0.638561 113.669 0.285728 112.337 0.213563H111.101C110.692 0.231881 110.285 0.282733 109.884 0.365636C108.705 0.581601 107.578 1.02089 106.564 1.65987C105.9 2.07497 105.288 2.56933 104.743 3.13207L104.393 3.48475L104.222 3.31002C104.202 3.28278 104.179 3.25783 104.154 3.23561C103.207 2.23242 102.059 1.44071 100.785 0.912451C99.7975 0.503054 98.7472 0.264539 97.6793 0.207092H96.4207C96.0031 0.224655 95.5876 0.275508 95.1782 0.359165C94.0807 0.560992 93.0285 0.95885 92.072 1.53368C90.2477 2.60609 88.8214 4.24248 88.0081 6.19617C87.5666 7.23787 87.3146 8.35003 87.2639 9.4803C87.1803 10.8803 87.3995 12.2819 87.9065 13.5896C88.4135 14.8973 89.1964 16.0803 90.2018 17.0581C90.2493 17.1198 90.3093 17.1707 90.3779 17.2076C90.4465 17.2444 90.5222 17.2662 90.5998 17.2716C90.6234 17.269 90.6464 17.2624 90.6678 17.2522C90.3746 17.6462 90.2318 18.1319 90.265 18.6219C90.2982 19.1119 90.5053 19.5739 90.849 19.9248L91.1984 20.2775L91.4928 20.5719C91.8118 20.8916 92.2276 21.0967 92.6754 21.1552C93.1231 21.2137 93.5777 21.1224 93.9681 20.8955C93.7511 21.2762 93.6606 21.716 93.7094 22.1514C93.7582 22.5869 93.944 22.9957 94.2399 23.3189C94.4922 23.581 94.7511 23.8301 95.0035 24.0728C95.3729 24.421 95.8612 24.6154 96.3689 24.6164C96.5442 24.6146 96.7189 24.5939 96.8898 24.5549C97.0681 24.5133 97.2392 24.4457 97.3978 24.3543C97.1767 24.7418 97.0886 25.1911 97.147 25.6335C97.2055 26.0758 97.4072 26.4868 97.7214 26.8037C97.8637 26.9525 98.0126 27.1013 98.1614 27.2502L98.3879 27.4734C98.5753 27.6629 98.7986 27.8131 99.0447 27.9153C99.2908 28.0176 99.5548 28.0697 99.8213 28.0688C100.191 28.0673 100.553 27.9656 100.87 27.7743C100.641 28.1617 100.546 28.6134 100.599 29.0601C100.652 29.5068 100.851 29.9236 101.164 30.2463C101.31 30.4016 101.465 30.5699 101.62 30.7058L101.847 30.929C102.23 31.3082 102.748 31.52 103.287 31.5179C103.71 31.5173 104.122 31.3825 104.464 31.1329L104.506 31.2397C104.538 31.3155 104.586 31.3836 104.646 31.4395C104.706 31.4953 104.778 31.5375 104.856 31.5632C105.256 31.7636 105.708 31.8371 106.152 31.7741C106.595 31.7111 107.009 31.5145 107.338 31.2105C107.512 31.0487 107.69 30.8708 107.852 30.6961C108.097 30.4324 108.274 30.1132 108.368 29.7661C108.462 29.4189 108.47 29.0541 108.392 28.7029C108.338 28.4454 108.237 28.1998 108.095 27.9782C108.257 28.0641 108.434 28.121 108.616 28.1464C108.723 28.1592 108.831 28.1657 108.939 28.1658C109.234 28.1683 109.527 28.1124 109.8 28.0013C110.073 27.8903 110.322 27.7262 110.531 27.5187C110.654 27.4055 110.78 27.2761 110.906 27.1466L111.084 26.9654C111.307 26.7515 111.482 26.4937 111.599 26.2083C111.702 25.953 111.744 25.6771 111.722 25.4026C111.687 25.051 111.576 24.7111 111.398 24.4061C111.695 24.571 112.029 24.6589 112.369 24.6617C112.891 24.6633 113.393 24.46 113.767 24.0955C113.99 23.8852 114.2 23.6748 114.414 23.4483C114.737 23.1029 114.941 22.6626 114.995 22.1925C115.05 21.7223 114.951 21.2472 114.715 20.8372C115.047 21.0297 115.424 21.1302 115.808 21.1284C116.366 21.1281 116.903 20.9152 117.31 20.5331C117.501 20.3551 117.675 20.1804 117.85 19.9927C118.169 19.6573 118.373 19.2287 118.431 18.7694C118.489 18.3101 118.399 17.8443 118.174 17.4399L118.465 17.1584C120.278 15.4589 121.37 13.1289 121.516 10.6483C121.576 9.66608 121.49 8.68033 121.26 7.72337V7.72337ZM92.9295 20.8016C92.7084 20.8021 92.4894 20.7588 92.2851 20.6744C92.0807 20.5901 91.8951 20.4661 91.7388 20.3098L91.0916 19.6627C90.7804 19.3478 90.6059 18.9229 90.6059 18.4801C90.6059 18.0373 90.7804 17.6124 91.0916 17.2975C91.8779 16.4951 92.6771 15.7088 93.4601 14.9193C93.6534 14.7254 93.8835 14.572 94.1368 14.4681C94.3902 14.3642 94.6617 14.3119 94.9355 14.3143H94.9808C95.26 14.3121 95.5368 14.3656 95.7951 14.4715C96.0535 14.5774 96.2881 14.7338 96.4854 14.9313C96.6826 15.1289 96.8386 15.3638 96.9441 15.6223C97.0497 15.8807 97.1027 16.1576 97.1001 16.4368C97.1043 16.7159 97.0517 16.9929 96.9454 17.251C96.8392 17.5091 96.6816 17.7429 96.4821 17.9381C95.6948 18.7276 94.9096 19.516 94.1266 20.3034C93.9701 20.4616 93.7836 20.5872 93.5781 20.6727C93.3725 20.7582 93.1521 20.8021 92.9295 20.8016ZM97.0484 17.7958C96.9551 17.9406 96.8466 18.0751 96.7248 18.197C96.8466 18.0751 96.9551 17.9406 97.0484 17.7958V17.7958ZM96.7895 24.1796C96.6465 24.214 96.4998 24.2313 96.3527 24.2314C95.9402 24.2315 95.5432 24.0741 95.2429 23.7913C94.9905 23.5486 94.7349 23.306 94.4955 23.0536C94.2045 22.7341 94.0451 22.3164 94.0493 21.8843C94.0535 21.4522 94.221 21.0377 94.5181 20.724L95.9191 19.3197L96.851 18.3846C97.1462 18.0839 97.5249 17.8787 97.9381 17.7958C98.0922 17.7557 98.2515 17.7393 98.4105 17.7472H98.4364C98.9232 17.7525 99.3932 17.9258 99.767 18.2377C100.141 18.5495 100.395 18.9809 100.488 19.4589C100.563 19.7951 100.553 20.145 100.458 20.4763C100.363 20.8075 100.186 21.1097 99.9442 21.3549C99.763 21.562 99.5592 21.7432 99.365 21.9373L97.5887 23.7201C97.3738 23.9511 97.096 24.1142 96.7895 24.1893V24.1796ZM97.8928 17.4237C98.0572 17.3857 98.2257 17.3683 98.3944 17.3719C98.2253 17.3715 98.0568 17.3921 97.8928 17.4334V17.4237ZM99.7986 27.687C99.5807 27.6874 99.3649 27.6444 99.1638 27.5605C98.9627 27.4767 98.7803 27.3535 98.6273 27.1984C98.4105 26.9816 98.1808 26.7616 97.964 26.5319C97.8085 26.377 97.6851 26.193 97.6008 25.9903C97.5166 25.7877 97.4733 25.5703 97.4733 25.3509C97.4733 25.1314 97.5166 24.9141 97.6008 24.7114C97.6851 24.5087 97.8085 24.3247 97.964 24.1699C98.7492 23.3804 99.5344 22.592 100.32 21.8047C100.756 21.3905 101.261 21.1867 102.131 21.1867C102.847 21.1867 103.775 21.9244 103.934 22.9792C103.996 23.3105 103.976 23.6521 103.875 23.9737C103.774 24.2953 103.595 24.5872 103.355 24.8235C102.568 25.6227 101.769 26.4121 100.983 27.1984C100.67 27.5149 100.244 27.6941 99.7986 27.6967V27.687ZM104.416 30.6669C104.264 30.8167 104.084 30.9349 103.886 31.0149C103.689 31.0949 103.477 31.135 103.264 31.1329C102.823 31.135 102.398 30.9629 102.083 30.654C101.853 30.4243 101.623 30.2075 101.407 29.9745C101.1 29.6607 100.928 29.2391 100.928 28.8C100.928 28.3609 101.1 27.9393 101.407 27.6255L102.533 26.4963L103.775 25.2473C104.176 24.8496 104.718 24.6253 105.283 24.6229C105.769 24.6252 106.24 24.7926 106.619 25.0977C106.997 25.4028 107.261 25.8275 107.367 26.3021C107.399 26.4619 107.414 26.6246 107.412 26.7875C107.419 27.0593 107.37 27.3296 107.268 27.5817C107.166 27.8338 107.013 28.0623 106.82 28.2532C106.024 29.0729 105.223 29.8807 104.416 30.6767V30.6669ZM107.558 30.4243C107.402 30.5958 107.234 30.7478 107.063 30.9226C106.727 31.2368 106.283 31.4105 105.823 31.4079C105.527 31.4086 105.235 31.3375 104.972 31.2008C104.914 31.1749 104.853 31.1523 104.827 31.0908C104.876 31.0359 104.929 30.984 104.985 30.9355C105.684 30.2301 106.386 29.5151 107.101 28.813C107.316 28.6076 107.502 28.3748 107.655 28.1205C107.677 28.0849 107.697 28.0688 107.713 28.0688C107.729 28.0688 107.752 28.0882 107.778 28.1335C107.909 28.3288 108 28.5491 108.043 28.7806C108.104 29.0749 108.091 29.3796 108.007 29.6679C107.922 29.9563 107.768 30.2194 107.558 30.434V30.4243ZM117.588 19.7307C117.42 19.9118 117.248 20.0833 117.067 20.2516C116.722 20.5758 116.265 20.7533 115.791 20.7467C115.318 20.74 114.866 20.5498 114.53 20.216L114.288 19.9733L106.69 12.3697C106.636 12.3068 106.575 12.2494 106.509 12.1982C106.458 12.1567 106.394 12.1339 106.328 12.1335C106.265 12.1341 106.204 12.1549 106.153 12.1927C106.102 12.2305 106.065 12.2834 106.047 12.3438C106.032 12.3915 106.03 12.4423 106.04 12.4911C106.051 12.5398 106.075 12.585 106.108 12.6221C106.165 12.6867 106.226 12.7483 106.289 12.8065L113.928 20.4684C114 20.5395 114.084 20.614 114.158 20.6981C114.474 21.0375 114.649 21.4837 114.649 21.947C114.649 22.4104 114.474 22.8566 114.158 23.196C113.954 23.4128 113.747 23.6198 113.53 23.8431C113.219 24.142 112.802 24.3067 112.37 24.3019C111.938 24.2971 111.525 24.123 111.22 23.8172L110.991 23.5875L103.257 15.8221C103.2 15.7615 103.14 15.7043 103.076 15.6506C103.024 15.6169 102.964 15.599 102.902 15.5988C102.842 15.5981 102.785 15.6162 102.737 15.6506C102.69 15.6848 102.656 15.7321 102.637 15.7863C102.618 15.8405 102.615 15.8992 102.63 15.9547C102.64 16.0049 102.665 16.051 102.701 16.0874C102.762 16.1489 102.834 16.2233 102.895 16.2815L110.66 24.0922C110.798 24.222 110.92 24.3676 111.023 24.5258C111.201 24.8038 111.312 25.1196 111.346 25.4479C111.365 25.663 111.331 25.8792 111.249 26.0789C111.154 26.3206 111.011 26.5406 110.829 26.726C110.648 26.9072 110.466 27.1013 110.285 27.2696C110.109 27.4435 109.899 27.5808 109.669 27.6735C109.439 27.7663 109.194 27.8126 108.946 27.8099C108.851 27.8097 108.757 27.8032 108.664 27.7905C108.451 27.7643 108.247 27.6853 108.072 27.5608C108.023 27.5315 107.984 27.4879 107.96 27.4359C107.937 27.3838 107.929 27.3258 107.939 27.2696C107.939 27.1628 107.975 27.0657 107.988 26.946C108.059 26.6086 108.025 26.2573 107.891 25.9397C107.738 25.5191 107.489 25.14 107.164 24.8327C106.839 24.5254 106.446 24.2984 106.017 24.1699C105.783 24.0953 105.539 24.0571 105.293 24.0566C105.171 24.0552 105.05 24.0649 104.93 24.0858C104.856 24.0858 104.798 24.0858 104.723 24.1084C104.568 24.1084 104.493 24.0372 104.493 23.8657C104.496 23.8046 104.504 23.7439 104.519 23.6845C104.601 23.0288 104.443 22.3655 104.073 21.8179C103.702 21.2704 103.146 20.8759 102.507 20.7078C102.284 20.6465 102.055 20.6149 101.824 20.614C101.689 20.6136 101.553 20.6244 101.42 20.6463C101.404 20.6416 101.387 20.6416 101.371 20.6463C101.341 20.6494 101.311 20.6494 101.281 20.6463C101.106 20.6463 101.038 20.546 101.07 20.3228C101.163 19.762 101.079 19.1862 100.83 18.6754C100.58 18.1646 100.178 17.7441 99.6789 17.4722C99.2813 17.2579 98.8363 17.1466 98.3847 17.1486C98.2385 17.1498 98.0926 17.1606 97.9479 17.181C97.9187 17.181 97.8896 17.181 97.8605 17.181H97.8378C97.8091 17.181 97.7806 17.1753 97.7541 17.1642C97.7276 17.1531 97.7036 17.1368 97.6834 17.1164C97.6632 17.0959 97.6473 17.0716 97.6366 17.0449C97.6259 17.0183 97.6206 16.9897 97.6211 16.961C97.614 16.917 97.614 16.8723 97.6211 16.8283C97.676 16.4616 97.6553 16.0876 97.5601 15.7292C97.465 15.3708 97.2974 15.0357 97.0678 14.7446C96.8508 14.4629 96.5795 14.2275 96.2699 14.0524C95.9604 13.8774 95.6188 13.7662 95.2655 13.7254C95.1484 13.7126 95.0307 13.7061 94.9129 13.706C94.2317 13.7068 93.5761 13.9657 93.0783 14.4308C92.9327 14.5634 92.8033 14.6961 92.6674 14.8287C92.0203 15.4758 91.3677 16.1305 90.7098 16.7927C90.6387 16.8672 90.6063 16.9027 90.5707 16.9027C90.5351 16.9027 90.506 16.8672 90.4316 16.7927C89.4646 15.8504 88.7117 14.7112 88.2238 13.4523C87.7358 12.1934 87.5244 10.8443 87.6037 9.49648C87.6563 8.40992 87.9029 7.34154 88.3317 6.34177C89.1133 4.46035 90.488 2.88567 92.2467 1.85724C93.1649 1.30157 94.1771 0.918845 95.2332 0.728022C95.6247 0.649277 96.0217 0.600601 96.4207 0.582421H97.6761C98.7031 0.636647 99.7132 0.866464 100.663 1.2619C101.892 1.77272 103 2.53672 103.914 3.50416L103.973 3.57858L103.791 3.75977C102.73 4.8383 101.667 5.90497 100.601 6.95977C100.274 7.2839 100.033 7.68416 99.8989 8.12458C99.7912 8.48436 99.7587 8.86245 99.8034 9.23533C99.8481 9.60821 99.9691 9.9679 100.159 10.292C100.348 10.6162 100.603 10.8978 100.906 11.1194C101.209 11.341 101.555 11.4979 101.921 11.5802C102.127 11.622 102.336 11.6436 102.546 11.6449C102.9 11.6454 103.25 11.5733 103.575 11.4331C103.9 11.2928 104.193 11.0874 104.435 10.8295C105.513 9.76179 106.561 8.69405 107.638 7.6263C107.7 7.56806 107.745 7.471 107.82 7.471C107.894 7.471 107.965 7.57777 108.023 7.63925C111.166 10.7799 114.305 13.9282 117.439 17.0839C117.523 17.1713 117.607 17.2554 117.691 17.3525C117.964 17.6965 118.103 18.1276 118.082 18.566C118.061 19.0045 117.882 19.4205 117.578 19.7371L117.588 19.7307ZM121.147 10.6225C121.008 13.0111 119.956 15.255 118.209 16.8898L118.161 16.9286C118.137 16.9238 118.115 16.9133 118.096 16.8981C118.078 16.8829 118.063 16.8634 118.054 16.8413C116.543 15.3626 108.444 7.22833 108.289 7.02125C108.361 6.93208 108.438 6.84676 108.519 6.76564C108.552 6.72862 108.575 6.6836 108.586 6.63496C108.596 6.58632 108.594 6.53574 108.58 6.48814C108.565 6.44055 108.538 6.39757 108.502 6.36341C108.466 6.32925 108.421 6.30507 108.373 6.29324C108.347 6.28883 108.321 6.28883 108.295 6.29324C108.229 6.29631 108.166 6.32267 108.117 6.36766C108.059 6.41619 108.011 6.47767 107.949 6.5262L104.102 10.3539C104.003 10.4648 103.895 10.5666 103.778 10.6581C103.49 10.8663 103.154 10.9991 102.802 11.0443C102.449 11.0896 102.09 11.046 101.759 10.9173C101.427 10.7887 101.133 10.5792 100.903 10.3078C100.673 10.0365 100.515 9.71199 100.442 9.36382C100.342 8.94238 100.397 8.49891 100.598 8.11488C100.802 7.7308 101.063 7.37958 101.371 7.07302C101.675 6.74946 101.989 6.45502 102.29 6.15087C103.209 5.22873 104.115 4.31953 105.021 3.40062C105.546 2.85764 106.135 2.37968 106.775 1.97696C107.749 1.36273 108.832 0.938933 109.965 0.728022C110.344 0.650697 110.727 0.602025 111.113 0.582421H112.333C113.611 0.653309 114.859 0.992891 115.996 1.57898C117.215 2.20229 118.284 3.082 119.131 4.1577C119.978 5.2334 120.582 6.4796 120.901 7.81073C121.119 8.73104 121.201 9.67839 121.144 10.6225H121.147Z" fill="#6200EE"/>
<path d="M14.8351 1.36542H19.915V16.8963C19.9581 18.4927 19.532 20.0667 18.6895 21.4234C17.847 22.7801 16.625 23.8599 15.1749 24.529C13.5408 25.2843 11.7556 25.6562 9.95586 25.6162C8.1529 25.6568 6.3645 25.2849 4.72714 24.529C3.27582 23.8619 2.05335 22.7817 1.21257 21.4236C0.371787 20.0654 -0.0499974 18.4896 -5.48317e-05 16.893V1.36218H5.07982V16.4627C5.06308 17.3097 5.26833 18.1463 5.67517 18.8894C6.07924 19.5955 6.6734 20.1739 7.39004 20.5589C8.17935 20.9775 9.06268 21.1869 9.95586 21.1672C10.8503 21.1887 11.7351 20.9792 12.5249 20.5589C13.2429 20.1769 13.8367 19.5976 14.2365 18.8894C14.6499 18.1483 14.8598 17.3111 14.8448 16.4627L14.8351 1.36542Z" fill="#6200EE"/>
<path d="M28.9942 14.9096V25.2635H23.9984V7.34479H28.7612V10.506H28.9715C29.3525 9.48513 30.0571 8.61698 30.9776 8.03397C31.9993 7.39656 33.1876 7.07779 34.3911 7.1183C35.5343 7.08977 36.6642 7.36916 37.6623 7.9272C38.5978 8.47817 39.3523 9.29001 39.8334 10.2633C40.3745 11.3826 40.6397 12.6152 40.6067 13.858V25.2764H35.611V14.7446C35.611 13.6477 35.3359 12.8032 34.7665 12.1755C34.4632 11.86 34.0956 11.6134 33.6886 11.4526C33.2816 11.2918 32.8447 11.2206 32.4077 11.2437C31.7863 11.2307 31.172 11.379 30.6249 11.674C30.1161 11.9727 29.7056 12.4136 29.4439 12.9424C29.1428 13.5541 28.9888 14.2278 28.9942 14.9096V14.9096Z" fill="#6200EE"/>
<path d="M44.5444 25.2764V7.34478H49.5402V25.2764H44.5444ZM47.052 5.03133C46.3444 5.04374 45.6598 4.78033 45.143 4.29685C44.8931 4.07169 44.6938 3.79607 44.5583 3.48819C44.4227 3.18031 44.3541 2.84718 44.3568 2.51081C44.3539 2.17772 44.4227 1.84792 44.5583 1.54369C44.694 1.23947 44.8934 0.967917 45.143 0.747409C45.6559 0.256237 46.342 -0.0124069 47.052 -1.26518e-05C47.4028 -0.00705947 47.7514 0.0553522 48.078 0.183628C48.4045 0.311904 48.7024 0.503509 48.9546 0.747409C49.2066 0.966466 49.4083 1.23751 49.5457 1.54191C49.6831 1.84631 49.753 2.17684 49.7505 2.51081C49.7528 2.84805 49.683 3.18189 49.5457 3.48993C49.4085 3.79798 49.2069 4.0731 48.9546 4.29685C48.4412 4.78172 47.758 5.04549 47.052 5.03133V5.03133Z" fill="#6200EE"/>
<path d="M63.2299 7.3448V11.0787H52.1124V7.3448H63.2299ZM54.6556 25.2764V6.04732C54.6129 4.91959 54.8768 3.80139 55.4192 2.81173C55.9129 1.96859 56.6476 1.29247 57.5288 0.870377C58.4798 0.428422 59.5185 0.207201 60.567 0.223258C61.2708 0.217937 61.9737 0.276417 62.6669 0.39798C63.1488 0.48166 63.6261 0.589651 64.0971 0.721539L63.2073 4.45865C62.968 4.38701 62.725 4.32868 62.4793 4.28393C62.1935 4.22917 61.9031 4.20209 61.6121 4.20304C60.8744 4.20304 60.3621 4.37344 60.0752 4.71426C59.7583 5.12196 59.6039 5.63265 59.6416 6.14763V25.2764H54.6556Z" fill="#6200EE"/>
<path d="M69.3679 32C68.7702 32.0043 68.1734 31.9534 67.5851 31.8479C67.1193 31.7781 66.6625 31.6577 66.2229 31.4888L67.3489 27.7743C67.8611 27.9407 68.3932 28.0386 68.9311 28.0655C69.3664 28.0955 69.7994 27.9818 70.1639 27.742C70.5651 27.4424 70.8644 27.0267 71.0213 26.5513L71.3125 25.7941L64.8413 7.35126H70.0959L73.8363 20.5136H74.0239L77.7869 7.34479H83.0771L76.0753 27.2146C75.7674 28.1279 75.3032 28.9807 74.7034 29.7351C74.1286 30.4623 73.3827 31.0359 72.5323 31.4046C71.5321 31.8266 70.4531 32.0296 69.3679 32V32Z" fill="#6200EE"/>
</g>
<defs>
<clipPath id="clip0_815_8823">
<rect width="121.746" height="32" fill="white"/>
</clipPath>
</defs>
</svg>
