<svg width="163" height="57" viewBox="0 0 163 57" fill="none" xmlns="http://www.w3.org/2000/svg">
<g clip-path="url(#clip0_11_183)">
<path d="M30.0406 5.61167C29.9181 5.70677 29.7876 5.78206 29.6888 5.88508C27.744 7.85843 25.7992 9.82781 23.8622 11.8091C23.0598 12.6293 22.5183 13.5922 22.3285 14.7414C22.1506 15.8152 22.3839 16.8177 22.8582 17.7687C24.3445 20.7605 28.5108 21.6996 31.1553 19.0566C33.116 17.0991 35.0687 15.1337 37.0254 13.1722C37.1281 13.0692 37.2032 12.9424 37.3179 12.7878C37.4918 12.9543 37.6064 13.0573 37.7132 13.1643C40.0454 15.5141 42.3736 17.8718 44.7137 20.2136C48.1527 23.6571 51.6036 27.0926 55.0426 30.54C55.347 30.8451 55.6316 31.1899 55.849 31.5584C56.5526 32.7511 56.4459 33.9518 55.683 35.0613C55.0861 35.9291 54.2995 36.6344 53.3468 37.0941C52.2914 37.6052 51.2241 37.5299 50.3071 36.7731C49.5363 36.1391 48.8168 35.4338 48.1093 34.7284C43.8955 30.5083 39.6896 26.2803 35.4837 22.0562C35.3651 21.9334 35.2387 21.8105 35.1003 21.7194C34.8236 21.5411 34.535 21.5609 34.29 21.7511C34.1239 21.8779 34.0923 22.0126 34.203 22.1949C34.2781 22.3177 34.3572 22.4406 34.456 22.5476C34.9303 23.0627 35.3968 23.5818 35.8909 24.0771C40.1916 28.4121 44.5082 32.7353 48.8208 37.0584C48.9868 37.2248 49.1568 37.3952 49.307 37.5775C50.3901 38.8614 50.3743 40.6207 49.2714 41.8848C48.7575 42.4752 48.2081 43.022 47.5756 43.4817C46.4728 44.2861 45.0655 44.2148 44.0536 43.3034C43.935 43.1964 43.8243 43.0815 43.7136 42.9705C38.9228 38.1719 34.1358 33.3693 29.3409 28.5746C29.1473 28.3804 28.9298 28.2021 28.7045 28.0476C28.4753 27.8891 28.246 27.9327 28.0602 28.1229C27.8547 28.3329 27.8309 28.5548 28.0167 28.7925C28.2144 29.0382 28.4239 29.2799 28.6452 29.5018C33.3966 34.2688 38.148 39.0317 42.9033 43.7908C43.4962 44.3851 43.9311 45.0667 44.0457 45.9107C44.1524 46.6755 44.0931 47.4165 43.5832 48.0505C43.2116 48.5101 42.8638 48.9975 42.4527 49.4215C41.8835 50.0119 41.1719 50.3805 40.3656 50.5588C39.6817 50.7094 39.0255 50.5984 38.397 50.3369C37.9899 50.1705 37.8357 49.9367 37.9306 49.4849C38.1164 48.6092 37.9345 47.7771 37.729 46.9449C37.3851 45.5699 36.5273 44.5872 35.3296 43.8859C34.4718 43.3826 33.531 43.1488 32.5388 43.133C32.3451 43.129 32.1475 43.1726 31.9499 43.1924C31.851 43.2043 31.7483 43.2122 31.6139 43.2241C31.6139 42.8398 31.6257 42.4871 31.6099 42.1384C31.602 41.9165 31.5743 41.6866 31.515 41.4727C31.2462 40.486 30.8549 39.5469 30.2106 38.7425C29.4081 37.74 28.329 37.205 27.0799 36.9712C26.4672 36.8563 25.8505 36.8642 25.2062 36.9593C25.2062 36.7454 25.2023 36.5512 25.2062 36.357C25.2458 35.0652 24.9177 33.8567 24.222 32.7868C23.2495 31.285 21.8067 30.5598 20.0319 30.4727C19.8461 30.4647 19.6643 30.4647 19.4785 30.4727C19.2967 30.4806 19.1109 30.5044 18.8776 30.5281C18.8856 30.3974 18.8974 30.2745 18.8974 30.1477C18.8974 28.4121 18.4903 26.8232 17.1898 25.5789C15.5612 24.0177 12.8258 23.669 10.9561 24.7943C10.5529 25.036 10.1852 25.3491 9.84925 25.678C8.46574 27.0371 7.10595 28.4201 5.73429 29.7911C5.64338 29.8862 5.56037 29.9892 5.45364 30.1081C5.33901 30.009 5.24414 29.9417 5.16508 29.8624C2.53245 27.2551 0.907817 24.1167 0.275355 20.4712C-0.341296 16.8415 0.0539929 13.3267 1.70235 10.018C4.29544 4.79935 8.43016 1.4827 14.1658 0.365261C19.0832 -0.589711 23.6093 0.476213 27.6768 3.42038C28.5662 4.06231 29.5267 4.96181 30.0406 5.61167Z" fill="#B5F456"/>
<path d="M56.4261 30.0132C50.3861 23.9624 44.3263 17.8839 38.2349 11.7776C38.3061 11.6746 38.397 11.5359 38.5037 11.4051C38.7132 11.1436 38.7132 10.9455 38.4998 10.7077C38.2823 10.47 37.9898 10.4026 37.7566 10.573C37.5352 10.7354 37.3178 10.9098 37.1241 11.104C34.8038 13.4498 32.4874 15.7917 30.1789 18.1494C29.084 19.2668 27.7756 19.5917 26.3051 19.1757C24.8267 18.7596 23.9096 17.7373 23.5302 16.2553C23.2416 15.1259 23.5104 14.0917 24.2733 13.2279C25.2457 12.1342 26.2458 11.0643 27.2617 10.0103C28.5899 8.6353 29.9417 7.28408 31.2857 5.92096C33.4005 3.77326 35.7723 2.01389 38.6341 0.975708C40.1718 0.41699 41.753 0.13565 43.3816 0.0405485C44.6346 -0.0347398 45.8798 -0.0149271 47.125 0.1832C50.4098 0.702293 53.3152 2.04559 55.8253 4.22499C58.7504 6.76498 60.6834 9.92709 61.5253 13.7272C61.8692 15.2686 61.9404 16.8338 61.8297 18.4149C61.6637 20.7171 61.1221 22.9163 60.1418 25.0085C59.3236 26.76 58.1851 28.2895 56.8451 29.6724C56.7107 29.7992 56.5565 29.9023 56.4261 30.0132Z" fill="#B5F456"/>
<path d="M5.60343 33.0247C5.53624 32.1926 5.86433 31.5031 6.43354 30.9246C7.92773 29.4029 9.4496 27.9011 10.9517 26.3795C12.7582 24.5488 16.628 25.2383 17.3514 28.2815C17.4937 28.8878 17.5807 29.498 17.4621 30.1241C17.3356 30.7938 17.051 31.3763 16.5767 31.8597C15.0429 33.4051 13.5171 34.9545 11.9597 36.48C11.1454 37.2765 10.1532 37.6094 9.02268 37.2844C8.72622 37.1973 8.4258 37.0546 8.18072 36.8684C7.76171 36.5474 7.38619 36.1749 6.9988 35.8183C6.81302 35.6479 6.64304 35.4656 6.46912 35.2873C5.85642 34.6573 5.53228 33.9202 5.60343 33.0247Z" fill="#B5F456"/>
<path d="M26.3679 38.0688C28.2574 38.0966 29.7674 39.2972 30.1706 41.4449C30.4275 42.808 30.0085 43.977 29.048 44.9518C27.6882 46.3307 26.3244 47.7097 24.9409 49.0649C24.0278 49.9565 22.9249 50.2973 21.6758 49.9644C21.3438 49.8772 21.0157 49.6949 20.735 49.4889C19.9128 48.8985 19.2567 48.1377 18.6795 47.3135C18.0945 46.4813 18.0985 45.1658 18.6558 44.3138C18.6993 44.2504 18.7507 44.187 18.806 44.1315C19.9049 43.0498 21.0117 41.9759 22.0988 40.8822C22.7866 40.1928 23.4507 39.4755 24.1266 38.7742C24.2175 38.683 24.3282 38.6078 24.4429 38.5404C25.02 38.2155 25.6406 38.0688 26.3679 38.0688Z" fill="#B5F456"/>
<path d="M23.8427 35.7984C23.8861 36.7969 23.5027 37.6251 22.8347 38.3344C22.3089 38.8891 21.7713 39.432 21.2298 39.9749C20.289 40.918 19.3443 41.8571 18.3956 42.7922C17.9054 43.2796 17.3362 43.6283 16.6286 43.668C15.7313 43.7234 14.8933 43.5451 14.2253 42.8874C13.6877 42.3603 13.1541 41.8373 12.6402 41.2904C11.7705 40.3672 11.7547 39.012 12.2765 37.9659C12.316 37.8866 12.3793 37.8153 12.4465 37.7519C12.9406 37.2764 13.4426 36.8088 13.9288 36.3293C15.0317 35.2317 16.1306 34.1301 17.2255 33.0246C17.4311 32.8185 17.6327 32.6085 17.8026 32.3747C17.9529 32.1726 18.1347 32.0458 18.36 31.9507C19.7949 31.3603 21.8227 31.6813 22.9651 32.9929C23.5778 33.6982 23.7873 34.5383 23.8427 35.4378C23.8466 35.5606 23.8427 35.6795 23.8427 35.7984Z" fill="#B5F456"/>
<path d="M32.3336 44.4407C32.97 44.3615 33.563 44.5358 34.1361 44.7776C34.7883 45.051 35.3418 45.4789 35.8121 46.0059C36.3932 46.6518 36.5988 47.4285 36.5592 48.2765C36.5395 48.6688 36.4762 49.065 36.3932 49.4494C36.2944 49.9209 36.077 50.3212 35.7252 50.6778C34.2428 52.1598 32.7803 53.6616 31.3177 55.1634C31.1359 55.3496 30.9975 55.5794 30.8038 55.7578C30.1002 56.3957 28.8234 56.7405 27.7917 56.158C27.0288 55.7261 26.3094 55.2466 25.7323 54.5809C25.0366 53.7805 24.5938 52.8691 24.6492 51.7754C24.6769 51.2365 24.8389 50.7689 25.3014 50.4004C25.7639 50.0359 26.1592 49.5802 26.5782 49.1601C27.7324 48.0031 28.8867 46.846 30.037 45.685C30.1477 45.574 30.2623 45.4591 30.3493 45.3284C30.8038 44.6745 31.4402 44.4209 32.215 44.4487C32.2545 44.4487 32.2941 44.4447 32.3336 44.4407Z" fill="#B5F456"/>
<path d="M37.0337 50.9829C37.8954 51.7992 37.9112 53.4912 37.3183 54.4779C37.176 54.7117 37.0139 54.9415 36.8282 55.1436C36.508 55.4923 36.1799 55.837 35.8241 56.1501C34.8399 57.0258 33.7014 57.1724 32.4681 56.8277C32.3535 56.796 32.2428 56.7524 32.1361 56.7088C31.7803 56.5622 31.7526 56.4473 32.0175 56.1778C32.4484 55.734 32.8871 55.2981 33.318 54.8543C34.4683 53.6774 35.6225 52.5045 36.7728 51.3237C36.8716 51.2207 36.9467 51.0978 37.0337 50.9829Z" fill="#B5F456"/>
<path d="M69.8779 13.5675C69.8779 13.4809 69.8779 13.3076 69.8779 13.221C69.8779 11.142 69.8779 9.14957 69.8779 7.07054C69.8779 6.89729 69.8779 6.72403 69.9646 6.55078C71.7837 6.55078 73.5162 6.55078 75.2487 6.55078C75.2487 6.63741 75.2487 6.81066 75.2487 6.89729C75.2487 10.9687 75.2487 15.0401 75.2487 19.1982C75.2487 21.2772 75.2487 23.4429 75.2487 25.5219C75.2487 27.2544 75.8551 28.7271 77.1545 29.9398C78.0208 30.7195 78.9737 31.1526 80.1864 31.4125C80.8795 31.5857 81.6591 31.5857 82.4387 31.5857C84.1712 31.4991 85.5573 30.8927 86.77 29.68C87.7229 28.7271 88.2427 27.5143 88.4159 26.2149C88.5026 25.6952 88.5025 25.262 88.5025 24.7423C88.5025 18.7651 88.5025 12.8745 88.5025 6.89729C88.5025 6.81066 88.5025 6.63741 88.5025 6.55078C90.3217 6.55078 92.0542 6.55078 93.7867 6.55078C93.7867 6.72403 93.7867 6.89729 93.7867 6.98391C93.7867 7.9368 93.7867 8.97631 93.7867 9.9292C93.7867 13.914 93.7867 17.8122 93.7867 21.797C93.7867 23.3563 93.7867 24.9155 93.7001 26.4748C93.6135 28.4672 93.1804 30.2863 91.9676 31.9322C91.0147 33.3183 89.7153 34.2711 88.2427 35.0508C86.77 35.7438 85.1241 36.2635 83.4782 36.4368C79.8399 36.8699 76.5481 36.0903 73.6028 33.9246C71.5238 32.452 70.3977 30.4596 69.9646 27.9474C69.9646 27.1678 69.9646 26.4748 69.9646 25.8684C69.9646 24.3958 69.9646 22.8365 69.8779 21.3639C69.8779 21.2772 69.8779 21.1906 69.8779 21.104C69.8779 18.5918 69.8779 16.0797 69.8779 13.5675Z" fill="white"/>
<path d="M83.8247 51.9431C83.6514 51.8565 83.4782 51.8565 83.2183 51.7699C81.3125 51.3368 80.0997 50.2106 79.58 48.3049C79.3201 47.352 79.1468 46.3991 79.2335 45.4462C79.4067 43.5404 80.273 41.9811 81.9189 41.0283C83.9113 39.9021 86.5101 40.3352 87.9827 41.9811C88.5025 42.5875 88.849 43.2805 88.9356 44.0602H88.849C88.2426 44.0602 87.7228 44.0602 87.1165 44.0602C86.9432 44.0602 86.8566 43.9735 86.7699 43.8869C86.7699 43.8003 86.6833 43.7137 86.6833 43.7137C86.0769 42.5875 85.124 42.1544 83.9979 42.3276C83.3049 42.4143 82.6985 42.5875 82.2654 43.1073C82.0055 43.3672 81.7456 43.7137 81.659 44.0602C81.3991 44.8398 81.2259 45.6194 81.2259 46.4857C81.3125 47.4386 81.5724 48.2182 82.0921 48.9979C82.6119 49.6909 83.3915 50.0374 84.2578 49.9507C84.6043 49.9507 84.9508 49.8641 85.2973 49.7775C85.9903 49.6042 86.4234 49.1711 86.6833 48.4781C86.77 48.2182 86.8566 47.8717 86.9432 47.5252C86.6833 47.4386 86.3368 47.5252 86.0769 47.5252C85.8171 47.5252 85.5572 47.5252 85.2107 47.5252C84.9508 47.5252 84.6909 47.5252 84.3444 47.5252C84.3444 47.0055 84.3444 46.4857 84.3444 45.9659C84.5177 45.8793 88.2426 45.8793 88.7623 45.9659C88.7623 46.3125 88.849 46.5723 88.849 46.9188C88.849 47.6985 88.7624 48.3915 88.5025 49.1711C87.9827 50.4705 86.9432 51.3368 85.6438 51.6833C85.2973 51.7699 85.0374 51.8565 84.6909 51.9431C84.6043 51.9431 84.1712 51.9431 83.8247 51.9431Z" fill="white"/>
<path d="M111.372 35.9173C111.372 35.7441 111.372 35.6574 111.372 35.5708C111.372 33.0586 111.372 30.6331 111.372 28.121C111.372 26.3884 111.372 24.5693 111.372 22.8368C111.372 22.1438 111.285 21.4507 111.112 20.8444C110.679 19.3717 109.726 18.5055 108.253 18.1589C107.3 17.9857 106.347 17.9857 105.394 18.3322C104.008 18.852 103.142 19.8048 102.709 21.2775C102.536 21.9705 102.449 22.6635 102.449 23.3565C102.449 27.4279 102.449 31.4994 102.449 35.6574C102.449 35.7441 102.449 35.9173 102.449 36.0039C100.717 36.0039 98.984 36.0039 97.2515 36.0039C97.1649 35.7441 97.1649 15.0404 97.2515 14.0009C97.4247 13.9143 101.669 13.9143 102.189 14.0009C102.189 15.2137 102.189 16.4264 102.189 17.6392C102.276 17.6392 102.362 17.5526 102.362 17.5526C102.449 17.4659 102.536 17.2927 102.536 17.2061C103.575 15.3003 105.134 14.0875 107.3 13.741C108.773 13.4811 110.245 13.4811 111.631 14.0009C114.23 14.9538 115.789 16.6863 116.309 19.4583C116.482 20.4112 116.482 21.2775 116.482 22.2304C116.482 26.7349 116.482 31.1529 116.569 35.6574C116.569 35.7441 116.569 35.8307 116.569 36.0039C114.923 35.9173 113.191 35.9173 111.372 35.9173Z" fill="white"/>
<path d="M141.691 13.6545C141.865 13.6545 141.951 13.6545 142.038 13.6545C143.597 13.6545 145.156 13.6545 146.629 13.6545C147.149 13.6545 147.235 13.7411 147.409 14.1743C148.015 16.08 148.535 17.9858 149.141 19.8916C150.094 23.1834 151.134 26.3885 152.087 29.6803C152.173 29.8536 152.173 30.1135 152.433 30.2001C152.433 30.1135 152.52 30.0268 152.52 29.9402C153.819 25.8688 155.032 21.7107 156.331 17.6393C156.678 16.5132 157.024 15.387 157.371 14.2609C157.371 14.1743 157.371 14.1743 157.371 14.0876C157.544 13.6545 157.631 13.5679 158.064 13.5679C158.41 13.5679 158.757 13.5679 159.103 13.5679C160.316 13.5679 161.529 13.5679 162.828 13.5679C162.915 13.5679 163.001 13.5679 163.175 13.5679C163.088 13.7411 163.088 13.8277 163.088 13.9144C161.442 18.3323 159.796 22.7502 158.237 27.1682C156.591 31.5861 155.032 35.9174 153.386 40.3353C152.953 41.4615 152.433 42.501 151.653 43.3673C150.787 44.4068 149.661 45.0998 148.362 45.4463C148.102 45.5329 147.928 45.5329 147.669 45.6195C147.669 45.6195 147.669 45.6195 147.582 45.6195C147.582 45.5329 147.582 45.4463 147.582 45.4463C148.015 43.887 148.535 42.3277 148.968 40.7685C149.228 39.9022 149.488 39.036 149.748 38.1697C149.921 37.4767 149.921 36.7837 149.661 36.0907C147.062 28.8141 144.463 21.6241 141.951 14.3475C141.865 14.1743 141.778 14.001 141.691 13.6545Z" fill="white"/>
<path d="M140.305 9.75614C140.045 9.66951 139.785 9.66951 139.526 9.58288C138.746 9.49626 137.966 9.40963 137.187 9.58288C136.407 9.75614 135.974 10.2759 135.801 11.0555C135.801 11.3154 135.714 11.5753 135.714 11.8352C135.714 12.4415 135.627 13.1346 135.627 13.8276C137.013 13.8276 138.399 13.8276 139.785 13.8276C139.785 15.2136 139.785 16.513 139.785 17.899C139.439 17.899 139.092 17.899 138.746 17.899C138.399 17.899 138.053 17.899 137.706 17.899C137.36 17.899 137.013 17.899 136.667 17.899C136.32 17.899 135.974 17.899 135.627 17.899C135.627 17.899 135.627 17.899 135.627 17.9856C135.627 17.9856 135.627 17.9856 135.627 18.0722C135.627 18.0722 135.627 18.0722 135.627 18.1589C135.627 24.0494 135.627 29.8534 135.627 35.744C135.454 35.8306 130.776 35.8306 130.343 35.744C130.343 34.2713 130.343 32.7987 130.343 31.2394C130.343 29.7668 130.343 28.2075 130.343 26.7349C130.343 25.2622 130.343 23.7896 130.343 22.2303C130.343 20.7577 130.343 19.1984 130.343 17.7257C129.997 17.7257 129.65 17.7257 129.304 17.7257C128.957 17.7257 128.611 17.7257 128.264 17.7257C127.918 17.7257 127.571 17.7257 127.225 17.7257C127.225 16.3397 127.225 15.0403 127.225 13.6543C128.264 13.6543 129.304 13.6543 130.343 13.6543C130.343 13.5677 130.343 13.4811 130.343 13.4811C130.343 13.3944 130.343 13.2212 130.343 13.1346C130.257 11.9218 130.43 10.7957 130.69 9.66951C131.123 7.59048 132.422 6.20447 134.328 5.51146C135.454 5.07833 136.58 4.9917 137.706 4.9917C138.919 4.9917 140.045 5.25158 141.171 5.59808C141.171 5.59808 141.171 5.59808 141.258 5.68471C140.998 7.07073 140.652 8.37012 140.305 9.75614Z" fill="white"/>
<path d="M125.232 35.9173C123.5 35.9173 121.767 35.9173 120.121 35.9173C120.121 35.8307 120.121 35.8307 120.121 35.744C120.121 28.4675 120.121 21.2775 120.121 14.0009V13.9143C120.294 13.9143 120.468 13.8276 120.641 13.8276C122.027 13.8276 123.413 13.8276 124.799 13.8276C124.886 13.8276 124.972 13.8276 124.972 13.8276C125.145 13.8276 125.319 14.0009 125.319 14.1741C125.319 14.2608 125.319 14.434 125.319 14.5206C125.319 21.4507 125.319 28.3808 125.319 35.3109C125.319 35.4842 125.232 35.744 125.232 35.9173Z" fill="white"/>
<path d="M122.113 51.6832C121.42 51.6832 120.727 51.6832 120.034 51.6832C120.034 48.0449 120.034 44.3199 120.034 40.6816C120.381 40.6816 120.727 40.6816 121.074 40.6816C121.853 40.6816 121.853 40.6816 122.286 41.288C123.759 43.3671 125.145 45.4461 126.618 47.5251C126.791 47.6984 126.878 47.8716 127.051 48.0449C127.051 45.6193 127.051 43.1938 127.051 40.7683C127.311 40.6816 128.697 40.6816 129.043 40.7683C129.043 44.4066 129.043 48.0449 129.043 51.7698C128.697 51.7698 128.264 51.7698 127.917 51.7698C127.831 51.7698 127.831 51.7698 127.744 51.7698C127.397 51.7698 127.138 51.5965 126.964 51.3367C125.492 49.171 123.932 47.0053 122.46 44.8397C122.373 44.6664 122.2 44.4932 122.113 44.3199C122.113 44.3199 122.113 44.3199 122.027 44.3199C122.113 46.8321 122.113 49.2576 122.113 51.6832Z" fill="white"/>
<path d="M143.164 44.2332C142.644 44.2332 142.211 44.2332 141.777 44.2332C141.691 44.2332 141.518 44.2332 141.431 44.2332C141.258 44.2332 141.084 44.1466 140.998 43.9734C140.911 43.8001 140.825 43.6269 140.651 43.4536C140.218 42.7606 139.525 42.5007 138.659 42.4141C138.312 42.4141 137.879 42.4141 137.533 42.5873C136.753 42.8472 136.233 43.2804 135.887 43.9734C135.281 45.2728 135.194 46.6588 135.714 48.0448C135.887 48.4779 136.06 48.8244 136.407 49.1709C137.36 50.2104 139.005 50.3837 140.132 49.6907C140.738 49.3442 141.084 48.7378 141.171 48.0448C141.171 47.8715 141.171 47.7849 141.258 47.6117C140.391 47.6117 139.612 47.6117 138.746 47.6117C138.746 47.0919 138.746 46.5721 138.746 46.139C138.919 46.0524 142.73 46.0524 143.164 46.139C143.164 46.3123 143.25 46.4855 143.25 46.5721C143.337 47.4384 143.25 48.3047 142.99 49.1709C142.557 50.3837 141.691 51.25 140.391 51.6831C139.179 52.1162 137.879 52.1162 136.667 51.6831C135.281 51.1633 134.328 50.2104 133.808 48.8244C133.288 47.2652 133.202 45.6193 133.721 43.9734C134.328 42.0676 135.714 40.9415 137.706 40.6816C139.092 40.4217 140.478 40.7682 141.604 41.6345C142.471 42.2408 142.99 43.1071 143.164 44.2332Z" fill="white"/>
<path d="M104.528 49.3443C104.615 49.171 104.615 49.0844 104.615 48.9978C105.481 46.399 106.347 43.8002 107.127 41.288C107.127 41.2014 107.213 41.0281 107.3 40.9415C107.387 40.7683 107.56 40.6816 107.733 40.6816C108.339 40.6816 108.946 40.6816 109.639 40.6816C109.639 40.7683 109.552 40.8549 109.552 40.9415C108.339 44.3199 107.213 47.6984 106.001 51.1634C106.001 51.25 105.914 51.3367 105.914 51.4233C105.827 51.6832 105.567 51.7698 105.308 51.7698C104.788 51.7698 104.355 51.7698 103.835 51.7698C103.748 51.7698 103.662 51.7698 103.575 51.7698C103.229 51.7698 103.229 51.7698 103.142 51.4233C102.449 49.5175 101.756 47.5251 101.063 45.6193C100.543 44.1467 100.023 42.674 99.5036 41.1148C99.5036 41.0281 99.417 40.8549 99.417 40.6816C99.6769 40.6816 99.9368 40.6816 100.197 40.6816C100.543 40.6816 100.803 40.6816 101.15 40.6816C101.496 40.6816 101.669 40.8549 101.756 41.1148C101.843 41.3746 101.929 41.6345 102.016 41.8944C102.795 44.1467 103.575 46.4856 104.268 48.7379C104.355 48.9977 104.441 49.171 104.528 49.3443Z" fill="white"/>
<path d="M122.72 6.29102C123.759 6.29102 124.712 6.72415 125.319 7.50378C126.358 8.80317 126.098 10.6223 124.712 11.6618C123.413 12.7014 121.594 12.6147 120.381 11.4886C118.735 10.0159 119.168 7.50378 121.074 6.55089C121.594 6.46427 122.113 6.29102 122.72 6.29102Z" fill="white"/>
<path d="M115.443 51.683C114.75 51.683 114.143 51.683 113.537 51.683C113.537 48.0447 113.537 44.4064 113.537 40.7681C113.71 40.6815 115.01 40.6815 115.443 40.7681C115.53 40.9413 115.53 51.3365 115.443 51.683Z" fill="white"/>
<path d="M93.5273 40.7681C94.1337 40.7681 94.8267 40.7681 95.4331 40.7681C95.5197 41.0279 95.5197 51.4231 95.4331 51.7696C94.8267 51.7696 94.2204 51.7696 93.5273 51.7696C93.5273 48.0447 93.5273 44.4064 93.5273 40.7681Z" fill="white"/>
</g>
<defs>
<clipPath id="clip0_11_183">
<rect width="163" height="57" fill="white"/>
</clipPath>
</defs>
</svg>
