<svg width="163" height="57" viewBox="0 0 163 57" fill="none" xmlns="http://www.w3.org/2000/svg">
<g clip-path="url(#clip0_102_1949)">
<path d="M39.4724 50.5897C38.9526 50.5897 38.4329 50.503 37.9131 50.2432C37.0469 49.8967 36.6137 49.2036 36.7004 48.2508C36.7004 48.1641 36.7004 47.9909 36.7004 47.9043C36.7004 47.8176 36.7004 47.731 36.7004 47.731C36.787 46.6915 36.4405 45.9118 35.6608 45.1322C35.0545 44.5258 34.3615 44.1793 33.5818 44.0927C33.4086 44.0927 33.1487 44.0061 32.9754 44.0061C32.8888 44.0061 32.8022 44.0061 32.6289 44.0061C32.4557 44.0061 32.2824 44.0061 32.1958 44.0061C32.1092 44.0061 32.0225 44.0061 31.9359 44.0061C31.1563 43.9194 30.5499 43.3997 30.5499 42.5334C30.5499 42.3602 30.5499 42.1003 30.5499 41.9271C30.8098 40.0213 29.5104 38.2021 27.6046 37.8556C27.4314 37.8556 27.2581 37.769 26.9982 37.769C26.825 37.769 26.6517 37.769 26.4785 37.769C26.3918 37.769 26.2186 37.769 26.132 37.769C26.0453 37.769 25.8721 37.769 25.7855 37.769C25.0058 37.6824 24.4861 37.076 24.4861 36.383C24.4861 36.2097 24.4861 35.9498 24.4861 35.7766C24.5727 34.3906 24.2262 33.3511 23.2733 32.4848C22.7535 32.0517 22.1472 31.7918 21.3675 31.6185C21.1943 31.6185 21.021 31.6185 20.8478 31.6185C20.6745 31.6185 20.5013 31.6185 20.328 31.6185C20.2414 31.6185 20.1548 31.6185 19.9815 31.6185C19.8949 31.6185 19.8083 31.6185 19.635 31.6185C18.8554 31.5319 18.3356 30.9255 18.3356 30.2325C18.3356 30.0593 18.3356 29.7994 18.3356 29.6261C18.5955 27.6337 17.1228 26.0745 15.6502 25.6413C15.3037 25.5547 14.9572 25.5547 14.6973 25.5547C13.7444 25.5547 12.9648 25.9012 12.1852 26.5942C11.3189 27.3739 10.5393 28.2401 9.673 29.1064L8.37361 30.4058C8.28698 30.4924 8.11373 30.6657 8.0271 30.7523L7.85385 30.9255H6.20796C1.61677 26.8541 -0.462257 20.3571 0.923761 14.1201C2.30978 7.44985 7.50735 2.07903 14.1776 0.519757C15.5636 0.173252 17.0362 0 18.4222 0C23.4466 0 28.211 2.07903 31.5028 5.71732V7.36322L31.4162 7.44985C31.3295 7.53647 31.2429 7.6231 31.1563 7.70973L26.9116 11.8678C26.3918 12.3009 25.9587 12.8207 25.5256 13.3404C24.9192 14.0334 24.4861 14.8131 24.4861 15.6793C24.3994 16.6322 24.6593 17.4119 25.2657 18.1915C25.8721 18.8845 26.4785 19.3176 27.3447 19.4909C27.6046 19.5775 27.9511 19.5775 28.211 19.5775C28.9906 19.5775 29.6836 19.3176 30.3766 18.7979C30.7232 18.538 31.0697 18.1915 31.4162 17.845L31.5894 17.6717C32.6289 16.6322 33.7551 15.5927 34.7946 14.4666L36.4405 12.8207C36.5271 12.734 36.6137 12.6474 36.787 12.5608L36.8736 12.4742H38.5195C38.5195 12.4742 38.6928 12.6474 38.7794 12.6474L53.2459 27.114C54.1122 27.9802 54.8918 28.7599 55.7581 29.6261C56.4511 30.3191 56.7976 31.0122 57.0575 31.8784C57.3174 33.0912 57.0575 34.3039 56.2779 35.3435C55.6715 36.2097 54.8918 36.9027 53.939 37.4225C53.6791 37.5957 53.4192 37.6824 53.1593 37.769C52.4663 38.0289 52.0332 38.1155 51.6 38.1155C51.3402 38.1155 50.9937 38.1155 50.7338 38.0289C51.0803 39.3283 50.7338 40.6277 49.8675 41.7538C49.3478 42.4468 48.6548 43.0532 47.8751 43.6596C47.1821 44.1793 46.4025 44.4392 45.6228 44.4392C45.363 44.4392 45.1031 44.4392 44.8432 44.3526C45.0165 45.1322 45.0165 45.9119 44.7566 46.6915C44.67 46.9514 44.5833 47.1246 44.4967 47.2979C44.0636 47.9043 43.5438 48.6839 42.8508 49.2903C41.9846 50.0699 40.945 50.5897 39.7323 50.6763C39.6456 50.5897 39.559 50.5897 39.4724 50.5897Z" fill="#6200EE"/>
<path d="M6.98748 30.1457C2.82943 26.3342 0.837024 20.357 2.04979 14.4664C3.43581 8.14269 8.3735 3.205 14.4373 1.73235C20.5878 0.259709 26.7382 2.33874 30.5498 6.58342C30.4632 6.67004 30.2899 6.8433 30.2033 6.92992C28.9039 8.22931 27.6911 9.44208 26.3917 10.7415C25.7854 11.3479 25.179 11.9542 24.486 12.6472C23.7063 13.5135 23.1866 14.4664 23.0999 15.6792C23.0133 16.8919 23.3598 18.0181 24.1395 19.0576C24.8325 19.9238 25.7854 20.5302 26.9115 20.7901C28.3841 21.1366 29.6835 20.7901 30.8963 19.9238C31.416 19.5773 31.8492 19.1442 32.2823 18.7111C33.9282 17.0652 35.4875 15.5059 37.1334 13.86C37.22 13.7734 37.3933 13.6001 37.5665 13.5135C37.6531 13.6001 37.7398 13.6001 37.7398 13.6868C41.2048 17.1518 44.5832 20.6168 48.0483 23.9953C49.3477 25.2947 50.5604 26.5074 51.8598 27.8068C52.8127 28.7597 53.7656 29.7126 54.7185 30.6655C55.1516 31.0986 55.4981 31.705 55.6714 32.3114C55.8446 33.1776 55.6714 34.0439 55.1516 34.8235C54.6319 35.5165 53.9388 36.1229 53.1592 36.6427C52.986 36.7293 52.8127 36.8159 52.6395 36.9026C51.7732 37.1624 50.9069 37.0758 50.2139 36.6427C49.954 36.4694 49.6942 36.2096 49.4343 36.0363C46.2291 32.9178 43.1106 29.7126 39.9054 26.5074C38.5194 25.1214 37.1334 23.7354 35.834 22.436C35.7474 22.3494 35.6607 22.2627 35.5741 22.1761C35.3142 21.9162 34.9677 21.8296 34.7078 22.0029C34.448 22.0895 34.3613 22.3494 34.5346 22.5226C34.6212 22.6093 34.6212 22.6959 34.7078 22.7825C35.141 23.2156 35.5741 23.7354 36.0072 24.1685C39.5589 27.7202 43.024 31.1852 46.5756 34.7369C47.2686 35.4299 47.9616 36.1229 48.6547 36.8159C49.0878 37.2491 49.5209 37.7688 49.6942 38.4618C49.954 39.5013 49.6942 40.4542 49.0878 41.2339C48.568 41.8403 47.9616 42.4466 47.3553 42.8798C46.2291 43.746 44.7565 43.4861 43.8902 42.6199C43.6303 42.36 43.3705 42.1001 43.024 41.7536C38.606 37.3357 34.2747 33.0044 29.8568 28.5865C29.6835 28.4132 29.5103 28.2399 29.337 28.1533C29.0771 27.8934 28.7306 27.9801 28.5574 28.2399C28.4708 28.4132 28.3841 28.5865 28.5574 28.7597C28.644 28.933 28.8173 29.0196 28.9039 29.1928C30.4632 30.7521 32.0224 32.3114 33.6683 33.9573C36.0939 36.3828 38.606 38.895 41.0316 41.3205C41.6379 41.9269 42.3309 42.6199 42.9373 43.2263C43.3705 43.6594 43.717 44.1792 43.8902 44.7855C44.0635 45.3919 44.0635 45.9983 43.8902 46.6047C43.8902 46.6913 43.8036 46.7779 43.8036 46.8646C43.3705 47.4709 42.9373 48.164 42.3309 48.6837C41.6379 49.2901 40.8583 49.6366 39.992 49.7232C39.5589 49.7232 39.0392 49.6366 38.606 49.4633C38.1729 49.2901 38.0863 49.1168 38.0863 48.6837C38.0863 48.5105 38.1729 48.3372 38.1729 48.164C38.2595 46.7779 37.7398 45.5652 36.7869 44.6123C36.0072 43.8327 35.0544 43.3995 34.0148 43.2263C33.5817 43.1396 33.1486 43.1396 32.8021 43.2263C32.6288 43.2263 32.4556 43.2263 32.2823 43.2263C32.1091 43.2263 32.0224 43.1396 32.0224 42.9664C32.0224 42.8798 32.0224 42.7065 32.0224 42.6199C32.3689 40.1077 30.6364 37.6822 28.0376 37.2491C27.6045 37.1624 27.0847 37.1624 26.6516 37.2491C26.4784 37.2491 26.3051 37.2491 26.1319 37.2491C25.9586 37.2491 25.872 37.1624 25.872 36.9026C25.872 36.7293 25.872 36.6427 25.872 36.4694C26.0452 34.7369 25.5255 33.3509 24.2261 32.2248C23.5331 31.6184 22.6668 31.2719 21.7139 31.0986C21.2808 31.012 20.8477 31.012 20.4145 31.0986C20.3279 31.0986 20.1547 31.0986 20.068 31.0986C19.8948 31.0986 19.8081 31.012 19.8081 30.8387C19.8081 30.6655 19.8081 30.5789 19.8081 30.4056C20.1547 27.8934 18.4221 25.6412 16.1699 25.1214C14.4373 24.6883 12.8781 25.1214 11.5787 26.4208C10.2793 27.6336 9.06651 28.933 7.76711 30.1457C7.33398 29.7992 7.16073 29.9725 6.98748 30.1457Z" fill="#B5F456"/>
<path d="M54.9782 30.9255L37.5664 13.5137L32.9752 18.1049C32.4554 18.6246 32.0223 19.0578 31.5026 19.5775C30.5497 20.4438 29.4235 20.9635 28.1241 20.9635C25.9585 20.9635 24.0527 19.6641 23.3597 17.5851C22.7533 15.9392 23.0998 14.3799 24.226 13.0805C25.2655 11.8678 26.305 10.7416 27.6044 9.44225L28.5573 8.48936C29.4235 7.6231 30.2898 6.75684 31.1561 5.89058C32.0223 5.02432 33.0618 4.07143 34.188 3.20517C36.267 1.73252 38.6059 0.693009 41.2047 0.259878C42.1576 0.0866261 43.1971 0 44.3232 0C44.5831 0 44.7564 0 45.0162 0C51.4266 0.173252 57.2305 3.81155 60.2624 9.52888C61.2153 11.4347 61.9083 13.3404 62.1682 15.4195C62.3415 16.8921 62.3415 18.4514 62.1682 20.0106C61.8217 22.7827 60.9554 25.3815 59.4828 27.6337C58.7898 28.6733 57.9235 29.7128 56.9706 30.6657C56.884 30.7523 56.7974 30.8389 56.7108 30.8389L56.4509 31.0122L54.9782 30.9255Z" fill="#6200EE"/>
<path d="M55.8444 30.0594C50.0405 24.2554 44.2365 18.4515 38.3459 12.5609C38.4326 12.4743 38.4326 12.3877 38.5192 12.301C38.6058 12.2144 38.6058 12.1278 38.6924 12.1278C38.8657 11.8679 38.8657 11.6947 38.6058 11.4348C38.4326 11.2615 38.1727 11.1749 37.9128 11.3481C37.8262 11.4348 37.7396 11.5214 37.5663 11.608C35.6605 13.5138 33.8414 15.333 32.0222 17.2387C31.5025 17.7585 31.0693 18.1916 30.5496 18.7114C29.8566 19.4044 28.9903 19.7509 28.0374 19.7509C26.3915 19.7509 25.0055 18.798 24.3991 17.2387C23.966 16.026 24.1393 14.8998 25.0055 13.8603C26.045 12.6475 27.1712 11.4348 28.3839 10.3086C29.5101 9.09587 30.7228 7.96973 31.849 6.75696C32.8019 5.8907 33.7548 4.93781 34.7943 4.24481C36.7867 2.85879 38.9523 1.9059 41.2912 1.47277C42.504 1.29952 43.7168 1.21289 44.9295 1.21289C50.8201 1.38614 56.2775 4.76456 59.1362 10.0488C60.0891 11.7813 60.6955 13.6004 60.9554 15.5062C61.1286 16.9788 61.1286 18.3649 60.9554 19.8375C60.6089 22.4363 59.8292 24.7752 58.4432 26.9409C57.7502 27.9804 56.9706 28.9333 56.1043 29.7995C56.0177 29.8861 56.0177 29.8861 55.931 29.9728C55.931 30.0594 55.931 30.0594 55.8444 30.0594Z" fill="#B5F456"/>
<path d="M29.4241 56.5666C28.8178 56.5666 28.298 56.3934 27.7782 56.1335C26.6521 55.6138 25.7858 54.8341 25.1795 53.9679C24.5731 53.1882 24.2266 52.322 24.1399 51.4557C24.0533 50.3296 24.3998 49.29 25.1795 48.4238C26.219 47.3843 27.1719 46.3448 28.2114 45.3052C28.6445 44.8721 29.0776 44.5256 29.5108 44.0925L29.7706 43.8326C30.4637 43.1396 31.3299 42.7065 32.1962 42.6198C32.3694 42.6198 32.5427 42.5332 32.7159 42.5332H32.8892H33.0624C34.6217 42.6198 35.9211 43.2262 36.874 44.2657C37.6536 45.132 38.0868 46.1715 38.0001 47.2976C38.0001 48.0773 37.9135 48.6837 37.6536 49.29C37.4804 49.8964 37.1339 50.4162 36.7007 50.8493C35.2281 52.322 33.7554 53.7946 32.2828 55.2672C31.6764 55.8736 30.8968 56.3068 30.0305 56.3934C29.7706 56.5666 29.5974 56.5666 29.4241 56.5666Z" fill="#6200EE"/>
<path d="M32.8888 43.7461C34.1016 43.8327 35.0545 44.2658 35.9207 45.1321C36.5271 45.7385 36.787 46.4315 36.787 47.2978C36.787 47.8175 36.7004 48.4239 36.5271 48.9437C36.3539 49.3768 36.1806 49.7233 35.8341 50.0698C34.3615 51.5424 32.8888 53.0151 31.4162 54.4877C30.9831 54.9209 30.4633 55.1807 29.8569 55.2674C29.3372 55.354 28.8174 55.2674 28.3843 55.0075C27.518 54.5744 26.7384 53.968 26.132 53.1883C25.6989 52.582 25.439 51.9756 25.3524 51.2826C25.2657 50.5029 25.5256 49.8099 26.0454 49.2035C27.0849 48.164 28.0378 47.1245 29.0773 46.085C29.597 45.5652 30.0302 45.1321 30.5499 44.699C31.0697 44.1792 31.6761 43.9193 32.3691 43.7461C32.5423 43.8327 32.7156 43.8327 32.8888 43.7461Z" fill="#B5F456"/>
<path d="M23.2735 50.4163C22.3206 50.4163 21.4543 50.0698 20.7613 49.5501C19.9817 48.8571 19.2886 48.1641 18.7689 47.471C18.2491 46.778 17.9893 45.9984 17.9893 45.2188C17.9893 44.1793 18.3358 43.2264 19.1154 42.3601C19.6352 41.8403 20.0683 41.3206 20.588 40.8875C21.5409 39.9346 22.5804 38.8951 23.5333 37.9422C24.3996 37.0759 25.5257 36.5562 26.7385 36.5562C26.8251 36.5562 26.9117 36.5562 26.9984 36.5562C29.5105 36.7294 31.2431 38.202 31.7628 40.6276C32.1093 42.2735 31.6762 43.8327 30.4634 45.0455C29.3373 46.2583 28.1245 47.3844 26.9117 48.5972L26.2187 49.2902C25.4391 50.0698 24.3996 50.503 23.3601 50.503C23.4467 50.4163 23.2735 50.4163 23.2735 50.4163Z" fill="#6200EE"/>
<path d="M23.3602 49.2034C22.6672 49.2034 22.0608 49.0302 21.5411 48.597C20.848 48.0773 20.2417 47.3843 19.7219 46.6912C19.3754 46.2581 19.2021 45.7384 19.2021 45.132C19.2021 44.3523 19.462 43.746 19.9818 43.1396C20.4149 42.6198 20.9347 42.1867 21.4544 41.6669C22.4073 40.714 23.4468 39.6745 24.3997 38.7216C25.0927 38.0286 25.959 37.6821 26.9985 37.6821C28.9043 37.7688 30.2037 38.8949 30.6368 40.8007C30.8967 42.1001 30.5502 43.2262 29.6839 44.1791C28.2979 45.5651 26.9119 46.9511 25.5259 48.3371C24.9195 48.8569 24.1398 49.2034 23.3602 49.2034Z" fill="#B5F456"/>
<path d="M17.1224 44.2659C16.0829 44.2659 15.2166 43.8328 14.437 43.2264C13.9172 42.7933 13.3974 42.2735 12.9643 41.7538C12.2713 40.9742 11.9248 40.1079 11.9248 39.0684C11.9248 37.8556 12.2713 36.8161 13.2242 35.9498C13.6573 35.5167 14.0038 35.1702 14.437 34.7371L14.5236 34.6504C15.4765 33.6976 16.4294 32.7447 17.4689 31.7918C18.1619 31.0988 18.9415 30.6656 19.8078 30.4924C20.1543 30.4058 20.4142 30.4058 20.7607 30.4058C22.7531 30.4058 24.5722 31.5319 25.3519 33.3511C25.5251 33.7842 25.785 34.5638 25.785 35.3435C25.8716 36.7295 25.3519 37.9422 24.3123 38.9818C22.9263 40.3678 21.5403 41.7538 20.2409 43.0532C19.3747 43.9194 18.4218 44.3526 17.2956 44.3526L17.1224 44.2659Z" fill="#6200EE"/>
<path d="M24.5723 35.3435C24.659 36.4696 24.2258 37.3359 23.4462 38.1155C22.0602 39.5015 20.7608 40.8876 19.3748 42.1869C18.7684 42.7933 18.0754 43.1398 17.2091 43.0532C16.5161 43.0532 15.8231 42.7933 15.3033 42.2736C14.7836 41.8404 14.3505 41.4073 13.9173 40.8876C13.3976 40.3678 13.1377 39.7614 13.1377 38.9818C13.1377 38.1155 13.4842 37.3359 14.0906 36.7295C14.5237 36.2964 14.8702 35.9499 15.3033 35.5167C16.2562 34.5638 17.2957 33.5243 18.2486 32.5714C18.7684 32.0517 19.3748 31.7052 20.0678 31.6186C21.4538 31.3587 23.5328 31.8784 24.3125 33.7842C24.4857 34.304 24.5723 34.8237 24.5723 35.3435Z" fill="#B5F456"/>
<path d="M11.0592 38.202C10.1063 38.202 9.32667 37.9421 8.54704 37.3357C8.20054 37.0758 7.94066 36.816 7.68078 36.5561C7.4209 36.2962 7.24765 36.123 7.0744 35.9497L6.90114 35.7764C6.12151 34.9968 5.775 33.9573 5.775 32.9178C5.68838 31.7916 6.20813 30.7521 7.0744 29.8859C7.59415 29.3661 8.11391 28.8464 8.72029 28.24C9.58655 27.3737 10.3662 26.5941 11.2324 25.7278C12.1853 24.7749 13.3115 24.3418 14.6109 24.3418C15.1306 24.3418 15.6504 24.4284 16.2568 24.6017C18.0759 25.2081 19.2887 26.5074 19.6352 28.4132C19.9817 30.0591 19.4619 31.6184 18.3358 32.7445C17.2963 33.784 16.1701 34.9102 15.1306 35.9497L14.1777 36.9026C13.5714 37.509 12.8783 37.9421 12.0987 38.1154C11.6656 38.1154 11.4057 38.202 11.0592 38.202Z" fill="#6200EE"/>
<path d="M7.07381 32.8311C6.98719 31.9649 7.42032 31.2719 8.0267 30.6655C9.41272 29.2795 10.7121 27.8935 12.0981 26.5941C13.1376 25.5546 14.437 25.2947 15.9097 25.7278C17.2957 26.1609 18.162 27.2004 18.4218 28.6731C18.6817 29.9725 18.3352 31.0986 17.3823 31.9649C15.9963 33.3509 14.6103 34.7369 13.2243 36.1229C12.7911 36.5561 12.2714 36.8159 11.7516 36.9892C10.8854 37.1625 10.0191 36.9892 9.32609 36.3828C9.06621 36.1229 8.80634 35.9497 8.54646 35.6898C8.28658 35.4299 8.11333 35.1701 7.85345 34.9968C7.33369 34.3904 6.98719 33.784 7.07381 32.8311Z" fill="#B5F456"/>
<path d="M34.0148 57C33.2352 57 32.4555 56.8267 31.7625 56.3936L31.5026 56.2203L31.416 54.4012L36.527 49.2036L38.3461 49.2902C38.4327 49.4635 38.5194 49.5501 38.606 49.6367C39.0391 50.3298 39.2124 51.0228 39.2124 51.889C39.2124 53.1018 38.7792 54.1413 37.913 54.9209C37.5665 55.2674 37.3066 55.5273 36.9601 55.8738C36.0938 56.5668 35.0543 57 34.0148 57Z" fill="#6200EE"/>
<path d="M32.1953 55.2674C33.9278 53.5349 35.5737 51.8023 37.3063 50.0698C37.3929 50.1565 37.3929 50.2431 37.4795 50.3297C37.826 50.7628 37.9126 51.3692 37.9126 51.889C37.9126 52.7552 37.5661 53.5349 36.9597 54.1413C36.6999 54.4011 36.3534 54.7476 36.0935 55.0075C35.054 55.9604 33.5813 56.047 32.2819 55.4406C32.2819 55.2674 32.2819 55.2674 32.1953 55.2674Z" fill="#B5F456"/>
<path d="M69.2988 13.5675C69.2988 13.4809 69.2988 13.3076 69.2988 13.221C69.2988 11.142 69.2988 9.14957 69.2988 7.07054C69.2988 6.89729 69.2988 6.72403 69.3855 6.55078C71.2046 6.55078 72.9371 6.55078 74.6696 6.55078C74.6696 6.63741 74.6696 6.81066 74.6696 6.89729C74.6696 10.9687 74.6696 15.0401 74.6696 19.1982C74.6696 21.2772 74.6696 23.4429 74.6696 25.5219C74.6696 27.2544 75.276 28.7271 76.5754 29.9398C77.4417 30.7195 78.3946 31.1526 79.6073 31.4125C80.3003 31.5857 81.08 31.5857 81.8596 31.5857C83.5921 31.4991 84.9782 30.8927 86.1909 29.68C87.1438 28.7271 87.6636 27.5143 87.8368 26.2149C87.9234 25.6952 87.9234 25.262 87.9234 24.7423C87.9234 18.7651 87.9234 12.8745 87.9234 6.89729C87.9234 6.81066 87.9234 6.63741 87.9234 6.55078C89.7426 6.55078 91.4751 6.55078 93.2076 6.55078C93.2076 6.72403 93.2076 6.89729 93.2076 6.98391C93.2076 7.9368 93.2076 8.97631 93.2076 9.9292C93.2076 13.914 93.2076 17.8122 93.2076 21.797C93.2076 23.3563 93.2076 24.9155 93.121 26.4748C93.0344 28.4672 92.6013 30.2863 91.3885 31.9322C90.4356 33.3183 89.1362 34.2711 87.6636 35.0508C86.1909 35.7438 84.545 36.2635 82.8991 36.4368C79.2608 36.8699 75.969 36.0903 73.0237 33.9246C70.9447 32.452 69.8186 30.4596 69.3855 27.9474C69.3855 27.1678 69.3855 26.4748 69.3855 25.8684C69.3855 24.3958 69.3855 22.8365 69.2988 21.3639C69.2988 21.2772 69.2988 21.1906 69.2988 21.104C69.2988 18.5918 69.2988 16.0797 69.2988 13.5675Z" fill="#6200EE"/>
<path d="M83.2456 51.9431C83.0723 51.8565 82.8991 51.8565 82.6392 51.7699C80.7334 51.3368 79.5206 50.2106 79.0009 48.3049C78.741 47.352 78.5677 46.3991 78.6544 45.4462C78.8276 43.5404 79.6939 41.9811 81.3398 41.0283C83.3322 39.9021 85.931 40.3352 87.4036 41.9811C87.9234 42.5875 88.2699 43.2805 88.3565 44.0602H88.2699C87.6635 44.0602 87.1437 44.0602 86.5374 44.0602C86.3641 44.0602 86.2775 43.9735 86.1908 43.8869C86.1908 43.8003 86.1042 43.7137 86.1042 43.7137C85.4978 42.5875 84.5449 42.1544 83.4188 42.3276C82.7258 42.4143 82.1194 42.5875 81.6863 43.1073C81.4264 43.3672 81.1665 43.7137 81.0799 44.0602C80.82 44.8398 80.6468 45.6194 80.6468 46.4857C80.7334 47.4386 80.9933 48.2182 81.513 48.9979C82.0328 49.6909 82.8124 50.0374 83.6787 49.9507C84.0252 49.9507 84.3717 49.8641 84.7182 49.7775C85.4112 49.6042 85.8443 49.1711 86.1042 48.4781C86.1908 48.2182 86.2775 47.8717 86.3641 47.5252C86.1042 47.4386 85.7577 47.5252 85.4978 47.5252C85.238 47.5252 84.9781 47.5252 84.6316 47.5252C84.3717 47.5252 84.1118 47.5252 83.7653 47.5252C83.7653 47.0055 83.7653 46.4857 83.7653 45.9659C83.9386 45.8793 87.6635 45.8793 88.1832 45.9659C88.1832 46.3125 88.2699 46.5723 88.2699 46.9188C88.2699 47.6985 88.1832 48.3915 87.9234 49.1711C87.4036 50.4705 86.3641 51.3368 85.0647 51.6833C84.7182 51.7699 84.4583 51.8565 84.1118 51.9431C84.0252 51.9431 83.5921 51.9431 83.2456 51.9431Z" fill="#6200EE"/>
<path d="M110.792 35.9173C110.792 35.7441 110.792 35.6574 110.792 35.5708C110.792 33.0586 110.792 30.6331 110.792 28.121C110.792 26.3884 110.792 24.5693 110.792 22.8368C110.792 22.1438 110.706 21.4507 110.533 20.8444C110.099 19.3717 109.147 18.5055 107.674 18.1589C106.721 17.9857 105.768 17.9857 104.815 18.3322C103.429 18.852 102.563 19.8048 102.13 21.2775C101.957 21.9705 101.87 22.6635 101.87 23.3565C101.87 27.4279 101.87 31.4994 101.87 35.6574C101.87 35.7441 101.87 35.9173 101.87 36.0039C100.137 36.0039 98.4049 36.0039 96.6724 36.0039C96.5858 35.7441 96.5858 15.0404 96.6724 14.0009C96.8456 13.9143 101.09 13.9143 101.61 14.0009C101.61 15.2137 101.61 16.4264 101.61 17.6392C101.697 17.6392 101.783 17.5526 101.783 17.5526C101.87 17.4659 101.957 17.2927 101.957 17.2061C102.996 15.3003 104.555 14.0875 106.721 13.741C108.194 13.4811 109.666 13.4811 111.052 14.0009C113.651 14.9538 115.21 16.6863 115.73 19.4583C115.903 20.4112 115.903 21.2775 115.903 22.2304C115.903 26.7349 115.903 31.1529 115.99 35.6574C115.99 35.7441 115.99 35.8307 115.99 36.0039C114.344 35.9173 112.612 35.9173 110.792 35.9173Z" fill="#6200EE"/>
<path d="M141.112 13.6545C141.286 13.6545 141.372 13.6545 141.459 13.6545C143.018 13.6545 144.577 13.6545 146.05 13.6545C146.57 13.6545 146.656 13.7411 146.83 14.1743C147.436 16.08 147.956 17.9858 148.562 19.8916C149.515 23.1834 150.555 26.3885 151.507 29.6803C151.594 29.8536 151.594 30.1135 151.854 30.2001C151.854 30.1135 151.941 30.0268 151.941 29.9402C153.24 25.8688 154.453 21.7107 155.752 17.6393C156.099 16.5132 156.445 15.387 156.792 14.2609C156.792 14.1743 156.792 14.1743 156.792 14.0876C156.965 13.6545 157.052 13.5679 157.485 13.5679C157.831 13.5679 158.178 13.5679 158.524 13.5679C159.737 13.5679 160.95 13.5679 162.249 13.5679C162.336 13.5679 162.422 13.5679 162.596 13.5679C162.509 13.7411 162.509 13.8277 162.509 13.9144C160.863 18.3323 159.217 22.7502 157.658 27.1682C156.012 31.5861 154.453 35.9174 152.807 40.3353C152.374 41.4615 151.854 42.501 151.074 43.3673C150.208 44.4068 149.082 45.0998 147.783 45.4463C147.523 45.5329 147.349 45.5329 147.09 45.6195C147.09 45.6195 147.09 45.6195 147.003 45.6195C147.003 45.5329 147.003 45.4463 147.003 45.4463C147.436 43.887 147.956 42.3277 148.389 40.7685C148.649 39.9022 148.909 39.036 149.169 38.1697C149.342 37.4767 149.342 36.7837 149.082 36.0907C146.483 28.8141 143.884 21.6241 141.372 14.3475C141.286 14.1743 141.199 14.001 141.112 13.6545Z" fill="#6200EE"/>
<path d="M139.726 9.75614C139.466 9.66951 139.206 9.66951 138.946 9.58288C138.167 9.49626 137.387 9.40963 136.608 9.58288C135.828 9.75614 135.395 10.2759 135.221 11.0555C135.221 11.3154 135.135 11.5753 135.135 11.8352C135.135 12.4415 135.048 13.1346 135.048 13.8276C136.434 13.8276 137.82 13.8276 139.206 13.8276C139.206 15.2136 139.206 16.513 139.206 17.899C138.86 17.899 138.513 17.899 138.167 17.899C137.82 17.899 137.474 17.899 137.127 17.899C136.781 17.899 136.434 17.899 136.088 17.899C135.741 17.899 135.395 17.899 135.048 17.899C135.048 17.899 135.048 17.899 135.048 17.9856C135.048 17.9856 135.048 17.9856 135.048 18.0722C135.048 18.0722 135.048 18.0722 135.048 18.1589C135.048 24.0494 135.048 29.8534 135.048 35.744C134.875 35.8306 130.197 35.8306 129.764 35.744C129.764 34.2713 129.764 32.7987 129.764 31.2394C129.764 29.7668 129.764 28.2075 129.764 26.7349C129.764 25.2622 129.764 23.7896 129.764 22.2303C129.764 20.7577 129.764 19.1984 129.764 17.7257C129.418 17.7257 129.071 17.7257 128.725 17.7257C128.378 17.7257 128.032 17.7257 127.685 17.7257C127.339 17.7257 126.992 17.7257 126.646 17.7257C126.646 16.3397 126.646 15.0403 126.646 13.6543C127.685 13.6543 128.725 13.6543 129.764 13.6543C129.764 13.5677 129.764 13.4811 129.764 13.4811C129.764 13.3944 129.764 13.2212 129.764 13.1346C129.677 11.9218 129.851 10.7957 130.111 9.66951C130.544 7.59048 131.843 6.20447 133.749 5.51146C134.875 5.07833 136.001 4.9917 137.127 4.9917C138.34 4.9917 139.466 5.25158 140.592 5.59808C140.592 5.59808 140.592 5.59808 140.679 5.68471C140.419 7.07073 140.073 8.37012 139.726 9.75614Z" fill="#6200EE"/>
<path d="M124.653 35.9173C122.92 35.9173 121.188 35.9173 119.542 35.9173C119.542 35.8307 119.542 35.8307 119.542 35.744C119.542 28.4675 119.542 21.2775 119.542 14.0009V13.9143C119.715 13.9143 119.889 13.8276 120.062 13.8276C121.448 13.8276 122.834 13.8276 124.22 13.8276C124.306 13.8276 124.393 13.8276 124.393 13.8276C124.566 13.8276 124.74 14.0009 124.74 14.1741C124.74 14.2608 124.74 14.434 124.74 14.5206C124.74 21.4507 124.74 28.3808 124.74 35.3109C124.74 35.4842 124.653 35.744 124.653 35.9173Z" fill="#6200EE"/>
<path d="M121.534 51.6832C120.841 51.6832 120.148 51.6832 119.455 51.6832C119.455 48.0449 119.455 44.3199 119.455 40.6816C119.802 40.6816 120.148 40.6816 120.495 40.6816C121.274 40.6816 121.274 40.6816 121.707 41.288C123.18 43.3671 124.566 45.4461 126.039 47.5251C126.212 47.6984 126.299 47.8716 126.472 48.0449C126.472 45.6193 126.472 43.1938 126.472 40.7683C126.732 40.6816 128.118 40.6816 128.464 40.7683C128.464 44.4066 128.464 48.0449 128.464 51.7698C128.118 51.7698 127.685 51.7698 127.338 51.7698C127.251 51.7698 127.251 51.7698 127.165 51.7698C126.818 51.7698 126.558 51.5965 126.385 51.3367C124.913 49.171 123.353 47.0053 121.881 44.8397C121.794 44.6664 121.621 44.4932 121.534 44.3199C121.534 44.3199 121.534 44.3199 121.447 44.3199C121.534 46.8321 121.534 49.2576 121.534 51.6832Z" fill="#6200EE"/>
<path d="M142.584 44.2332C142.065 44.2332 141.632 44.2332 141.198 44.2332C141.112 44.2332 140.939 44.2332 140.852 44.2332C140.679 44.2332 140.505 44.1466 140.419 43.9734C140.332 43.8001 140.246 43.6269 140.072 43.4536C139.639 42.7606 138.946 42.5007 138.08 42.4141C137.733 42.4141 137.3 42.4141 136.954 42.5873C136.174 42.8472 135.654 43.2804 135.308 43.9734C134.701 45.2728 134.615 46.6588 135.135 48.0448C135.308 48.4779 135.481 48.8244 135.828 49.1709C136.78 50.2104 138.426 50.3837 139.553 49.6907C140.159 49.3442 140.505 48.7378 140.592 48.0448C140.592 47.8715 140.592 47.7849 140.679 47.6117C139.812 47.6117 139.033 47.6117 138.166 47.6117C138.166 47.0919 138.166 46.5721 138.166 46.139C138.34 46.0524 142.151 46.0524 142.584 46.139C142.584 46.3123 142.671 46.4855 142.671 46.5721C142.758 47.4384 142.671 48.3047 142.411 49.1709C141.978 50.3837 141.112 51.25 139.812 51.6831C138.6 52.1162 137.3 52.1162 136.087 51.6831C134.701 51.1633 133.749 50.2104 133.229 48.8244C132.709 47.2652 132.622 45.6193 133.142 43.9734C133.749 42.0676 135.135 40.9415 137.127 40.6816C138.513 40.4217 139.899 40.7682 141.025 41.6345C141.891 42.2408 142.411 43.1071 142.584 44.2332Z" fill="#6200EE"/>
<path d="M103.949 49.3443C104.035 49.171 104.035 49.0844 104.035 48.9978C104.902 46.399 105.768 43.8002 106.548 41.288C106.548 41.2014 106.634 41.0281 106.721 40.9415C106.807 40.7683 106.981 40.6816 107.154 40.6816C107.76 40.6816 108.367 40.6816 109.06 40.6816C109.06 40.7683 108.973 40.8549 108.973 40.9415C107.76 44.3199 106.634 47.6984 105.421 51.1634C105.421 51.25 105.335 51.3367 105.335 51.4233C105.248 51.6832 104.988 51.7698 104.728 51.7698C104.209 51.7698 103.776 51.7698 103.256 51.7698C103.169 51.7698 103.083 51.7698 102.996 51.7698C102.649 51.7698 102.649 51.7698 102.563 51.4233C101.87 49.5175 101.177 47.5251 100.484 45.6193C99.964 44.1467 99.4443 42.674 98.9245 41.1148C98.9245 41.0281 98.8379 40.8549 98.8379 40.6816C99.0978 40.6816 99.3576 40.6816 99.6175 40.6816C99.964 40.6816 100.224 40.6816 100.57 40.6816C100.917 40.6816 101.09 40.8549 101.177 41.1148C101.263 41.3746 101.35 41.6345 101.437 41.8944C102.216 44.1467 102.996 46.4856 103.689 48.7379C103.776 48.9977 103.862 49.171 103.949 49.3443Z" fill="#6200EE"/>
<path d="M122.141 6.29102C123.18 6.29102 124.133 6.72415 124.739 7.50378C125.779 8.80317 125.519 10.6223 124.133 11.6618C122.834 12.7014 121.015 12.6147 119.802 11.4886C118.156 10.0159 118.589 7.50378 120.495 6.55089C121.015 6.46427 121.534 6.29102 122.141 6.29102Z" fill="#6200EE"/>
<path d="M114.864 51.683C114.171 51.683 113.564 51.683 112.958 51.683C112.958 48.0447 112.958 44.4064 112.958 40.7681C113.131 40.6815 114.431 40.6815 114.864 40.7681C114.95 40.9413 114.95 51.3365 114.864 51.683Z" fill="#6200EE"/>
<path d="M92.9482 40.7681C93.5546 40.7681 94.2476 40.7681 94.854 40.7681C94.9406 41.0279 94.9406 51.4231 94.854 51.7696C94.2476 51.7696 93.6413 51.7696 92.9482 51.7696C92.9482 48.0447 92.9482 44.4064 92.9482 40.7681Z" fill="#6200EE"/>
</g>
<defs>
<clipPath id="clip0_102_1949">
<rect width="162" height="57" fill="white" transform="translate(0.5)"/>
</clipPath>
</defs>
</svg>
