<svg width="240" height="240" viewBox="0 0 240 240" fill="none" xmlns="http://www.w3.org/2000/svg">
<path d="M56.3232 71.9065C45.1078 79.7988 36.3846 100.983 57.569 105.699C78.7535 110.416 84.5002 140.5 74.0002 154.5C59.5691 168.178 40.0002 176.998 40.0002 176.998" stroke="#7C2BF1" stroke-miterlimit="10" stroke-dasharray="10 10"/>
<path d="M73.2153 214.779V203.147H117.599L121.374 214.167L73.2153 214.779Z" fill="#CBAAF9"/>
<path d="M195.502 167.481C192.623 150.807 182.428 135.886 165.864 130.546C161.627 129.188 157.294 128.147 152.902 127.434V127.457C152.673 128.841 152.131 130.154 151.316 131.297C149.59 133.662 147.211 135.605 144.456 136.617C141.644 137.658 138.16 137.792 135.55 136.156C133.979 135.172 132.455 133.44 132.179 131.57C131.865 129.464 132.938 127.471 134.448 126.079C121.65 126.183 116.885 130.297 107.09 134.786C107.424 136.186 101.886 139.071 99.5394 141.52C97.1927 143.969 85.2465 154.892 86.6835 156.295C88.4758 154.519 81.2907 163.571 82.6022 161.416C83.8568 161.827 91.6789 162.386 92.4993 163.421C93.3194 164.455 101.058 162.105 101.172 163.421L109.947 162.334C110.453 167.112 119.525 164.208 115.66 166.416C111.196 168.983 108 171.552 103.111 173.15C101.094 173.811 95.1378 168.126 93.0094 167.436C90.0056 173.145 91.975 172.912 91.7585 172.807C89.6363 171.767 87.7915 170.946 86.6835 168.953C83.5266 163.29 81.0656 179.144 79.6739 172.807C70.5931 177.093 69.8095 173.733 69.2361 172.129L61.5837 160.804C61.1503 162.464 58.5879 160.592 58.9309 162.273C59.2742 163.955 64.1053 181.791 65.1548 183.149C66.2041 184.506 57.8482 161.517 59.3886 162.273C60.9293 163.029 62.6226 163.422 64.3386 163.421H98.5436L114.081 203.274L118.485 214.585H143.637C141.597 214.585 140.481 214.087 139.67 213.275C138.834 212.438 138.363 211.304 138.36 210.12C138.36 207.672 140.37 205.664 143.637 205.664H143.868C143.621 205.664 143.384 205.641 143.137 205.619C143.291 205.602 143.442 205.577 143.593 205.543C143.431 205.539 143.269 205.527 143.109 205.507C144.582 205.332 145.948 204.646 146.967 203.567C147.985 202.489 148.592 201.086 148.682 199.605C148.686 199.528 148.686 199.451 148.682 199.374V199.256C148.647 197.738 148.066 196.282 147.047 195.157C146.027 194.031 144.637 193.309 143.129 193.124C143.301 193.11 143.464 193.095 143.629 193.095C143.48 193.059 143.315 193.036 143.16 193.014C143.405 192.991 143.652 192.975 143.888 192.975L162.291 193.073L165.676 193.087H169.694C169.88 193.087 170.068 193.087 170.245 193.11L176.214 193.14L180.201 193.163C181.868 193.177 183.461 193.85 184.632 195.036C185.804 196.221 186.458 197.822 186.452 199.489C186.45 200.431 186.231 201.36 185.813 202.205C187.524 201.986 189.11 201.195 190.315 199.96C193.186 197.028 194.423 192.638 195.278 188.737C196.79 181.786 196.7 174.462 195.502 167.481ZM149.008 167.951C145.541 173.287 139.638 172.807 139.638 172.807C139.638 172.807 139.148 173.285 138.005 171.253C136.863 169.22 133.608 167.83 133.608 167.83C133.349 169.871 132.812 172.973 127.486 168.953C122.16 164.933 123.766 159.072 124.221 155.976C124.676 152.881 126.49 151.854 126.49 151.854L128.633 150.724C128.633 150.724 122.435 149.13 122.137 149.071C121.839 149.012 116.32 144.39 121.921 143.169C127.523 141.949 136.254 146.802 137.942 147.761C139.63 148.72 149.492 157.062 149.492 157.062C149.492 157.062 152.494 162.623 149.008 167.951Z" fill="#CBAAF9"/>
<path d="M133.986 153.813C131.843 151.238 125.978 149.779 122.15 149.073C121.507 148.952 120.92 148.625 120.478 148.142C120.036 147.659 119.764 147.045 119.701 146.393C119.657 145.954 119.707 145.51 119.85 145.091C120.078 144.449 120.516 143.902 121.092 143.538C121.668 143.174 122.349 143.014 123.027 143.083C129.557 143.745 136.291 145.8 141.273 150.226C141.273 150.226 165.419 168.653 168.303 170.446C169.493 171.169 170.603 170.316 169.797 169.181L169.544 168.748C168.124 166.313 166.444 164.038 164.534 161.965" stroke="#7C2BF1" stroke-width="1.3436" stroke-miterlimit="10"/>
<path d="M134.332 126.115C104.051 126.379 85.357 158.051 85.357 158.051C81.0671 160.725 86.0424 171.102 83.1123 182.538" stroke="#7C2BF1" stroke-width="1.3436" stroke-miterlimit="10"/>
<path d="M181.6 205.574C181.6 205.574 178.292 204.825 177.412 207.473C176.533 210.122 175.614 214.336 181.938 214.585C188.262 214.834 184.548 213.591 184.183 211.544C183.818 209.498 181.6 205.574 181.6 205.574Z" fill="#CBAAF9"/>
<path d="M131.068 157.175C131.068 157.175 127.499 154.469 124.285 157.212C124.149 157.331 124.031 157.468 123.934 157.62" stroke="#7C2BF1" stroke-width="1.3436" stroke-miterlimit="10"/>
<path d="M130.637 161.113C130.637 161.113 123.86 158.885 123.758 162.631" stroke="#7C2BF1" stroke-width="1.3436" stroke-miterlimit="10"/>
<path opacity="0.54" d="M69.9747 199.279L56.6841 165.229C56.5194 164.57 56.5072 163.882 56.648 163.218C56.789 162.554 57.0796 161.93 57.4975 161.395C57.9156 160.86 58.4501 160.427 59.0606 160.129C59.671 159.831 60.3413 159.677 61.0205 159.677H113.812C114.997 159.676 116.148 160.075 117.079 160.809C118.01 161.543 118.667 162.568 118.944 163.721L133.493 197.763C133.651 198.419 133.657 199.103 133.512 199.763C133.367 200.422 133.075 201.04 132.657 201.571C132.238 202.101 131.706 202.53 131.098 202.824C130.491 203.119 129.824 203.272 129.149 203.273H75.0947C73.918 203.273 72.7751 202.881 71.8474 202.157C70.9197 201.433 70.2606 200.42 69.9747 199.279Z" fill="white"/>
<path d="M132.843 166.857C132.843 166.857 133.943 167.865 133.524 169.306C133.214 170.373 132.153 171.046 131.102 170.681C127.755 169.524 124.741 167.559 124.007 164.218C123.66 162.527 123.585 160.791 123.784 159.076C123.946 157.486 124.18 155.77 124.715 154.258C125.531 151.936 128.031 150.318 130.457 151.436" stroke="#7C2BF1" stroke-width="1.3436" stroke-miterlimit="10"/>
<path d="M69.9747 199.279L56.6841 165.229C56.5194 164.57 56.5072 163.882 56.648 163.218C56.789 162.554 57.0796 161.93 57.4975 161.395C57.9156 160.86 58.4501 160.427 59.0606 160.129C59.671 159.831 60.3413 159.677 61.0205 159.677H113.812C114.997 159.676 116.148 160.075 117.079 160.809C118.01 161.543 118.667 162.568 118.944 163.721L133.493 197.763C133.651 198.419 133.657 199.103 133.512 199.763C133.367 200.422 133.075 201.04 132.657 201.571C132.238 202.101 131.706 202.53 131.098 202.824C130.491 203.119 129.824 203.272 129.149 203.273H75.0947C73.918 203.273 72.7751 202.881 71.8474 202.157C70.9197 201.433 70.2606 200.42 69.9747 199.279Z" fill="#C1F672"/>
<path d="M176.149 192.979L185.487 214.587" stroke="#7C2BF1" stroke-width="1.3436" stroke-miterlimit="10"/>
<path d="M196.632 214.477L60.3853 214.477" stroke="#7C2BF1" stroke-width="1.3436" stroke-miterlimit="10"/>
<path d="M133.592 117.061C132.077 118.556 129.816 118.554 128.529 117.171" stroke="#7C2BF1" stroke-width="1.3436" stroke-miterlimit="10"/>
<path d="M116.134 97.2003C116.476 98.6283 117.258 99.9127 118.369 100.873C119.48 101.833 120.865 102.42 122.327 102.551C122.449 101.962 122.712 101.411 123.094 100.947C124.727 99.0228 125.423 102.633 130.645 100.041C137.881 96.4414 140.627 98.5065 140.627 98.5065C140.868 98.6861 140.832 100.343 140.872 100.645C141.076 102.365 141.26 104.077 141.462 105.795C141.585 106.844 141.705 107.885 141.819 108.926C141.918 108.749 142.027 108.578 142.146 108.414C142.805 106.081 143.982 103.326 146.521 104.512C147.035 104.763 147.482 105.131 147.827 105.587C149.51 107.799 148.235 109.936 146.474 111.517C146.032 112.008 145.539 112.449 145.003 112.834C145.292 113.434 146.476 115.815 146.476 115.823C146.598 116.064 150.735 111.383 151.043 110.872C151.503 109.623 151.75 108.305 151.773 106.973C151.841 101.498 149.612 95.125 145.178 91.9844C144.078 91.207 144.429 90.458 144.362 89.401C144.357 89.3439 144.335 89.2896 144.299 89.2451C144.263 89.2006 144.214 89.1682 144.159 89.152C144.104 89.1359 144.045 89.1369 143.991 89.1547C143.936 89.1726 143.889 89.2065 143.854 89.2522C142.464 90.8521 139.024 90.6929 139.024 90.6929C127.082 87.7014 123.068 93.0111 120.658 93.9579C119.674 94.3303 118.592 94.3483 117.597 94.0089C117.538 94.3383 117.391 94.6454 117.17 94.8972C116.95 95.149 116.665 95.3358 116.346 95.4374L116.407 95.9902C116.459 96.4132 116.363 96.8409 116.134 97.2003Z" fill="#C1F672"/>
<path d="M122.336 102.559C120.873 102.428 119.489 101.841 118.378 100.881C117.266 99.9212 116.484 98.6366 116.142 97.2088C116.008 96.6611 115.923 96.1023 115.889 95.5395L115.983 95.5293C116.111 95.5198 116.238 95.4922 116.359 95.4477C116.677 95.3461 116.962 95.1594 117.183 94.9076C117.403 94.656 117.551 94.3486 117.609 94.0193C117.647 93.8366 117.654 93.6491 117.632 93.4642L117.326 90.7624C117.326 90.7624 119.485 92.3684 121.88 91.4297C124.276 90.491 128.298 85.1813 140.246 88.1647C140.246 88.1647 142.944 88.3239 144.327 86.724C144.362 86.6783 144.41 86.6444 144.464 86.6267C144.519 86.6087 144.578 86.6079 144.633 86.624C144.688 86.6402 144.737 86.6726 144.773 86.7169C144.809 86.7614 144.831 86.8159 144.835 86.873C144.907 87.9321 145.299 88.681 146.401 89.4564C150.835 92.599 153.063 98.9698 152.994 104.445C152.974 106.716 152.218 108.959 151.053 110.883C150.745 111.393 146.609 116.074 146.486 115.834C146.486 115.834 145.303 113.444 145.013 112.844L144.944 112.711L145.076 112.624C145.569 112.289 146.039 111.923 146.484 111.528C148.243 109.946 149.521 107.81 147.837 105.598C147.493 105.142 147.045 104.773 146.531 104.522C143.985 103.337 142.815 106.092 142.156 108.424C142.028 108.87 141.949 109.328 141.921 109.791C141.891 109.506 141.86 109.23 141.83 108.944C141.715 107.904 141.595 106.863 141.473 105.814C141.268 104.096 141.077 102.384 140.883 100.664C140.852 100.37 140.883 98.7046 140.638 98.525C140.638 98.525 137.889 96.4599 130.655 100.06C125.433 102.651 124.737 99.0392 123.105 100.966C122.722 101.43 122.459 101.98 122.338 102.57C122.3 102.759 122.276 102.95 122.266 103.143C122.262 103.168 122.262 103.193 122.266 103.218C122.242 103.641 122.233 104.061 122.223 104.473C122.185 108.451 122.621 112.605 124.182 116.299C126.08 120.776 131.102 125.192 136.324 123.104C137.957 122.449 139.42 121.394 140.758 120.274" stroke="#7C2BF1" stroke-width="1.3436" stroke-miterlimit="10"/>
<path d="M125.909 112.259C126.429 112.086 126.679 111.435 126.469 110.807C126.259 110.178 125.667 109.81 125.148 109.984C124.628 110.157 124.378 110.808 124.588 111.436C124.798 112.065 125.39 112.433 125.909 112.259Z" fill="#7C2BF1"/>
<path d="M133.679 112.011C134.198 111.837 134.449 111.187 134.239 110.559C134.028 109.93 133.437 109.562 132.917 109.735C132.398 109.909 132.147 110.56 132.358 111.188C132.568 111.816 133.159 112.185 133.679 112.011Z" fill="#7C2BF1"/>
<path d="M130.708 113.356C130.708 113.356 128.123 114.824 127.966 113.301C127.917 112.832 127.284 108.234 127.284 108.234C127.284 108.234 125.194 106.02 121.993 107.657" stroke="#7C2BF1" stroke-width="1.3436" stroke-miterlimit="10"/>
<path d="M130.127 106.947C130.127 106.947 134.302 104.862 137.065 107.867" stroke="#7C2BF1" stroke-width="1.3436" stroke-miterlimit="10"/>
<path d="M133.955 123.616L134.434 126.077C132.922 127.471 131.853 129.469 132.165 131.572C132.443 133.438 133.969 135.174 135.534 136.152C138.15 137.784 141.63 137.655 144.446 136.617C147.199 135.597 149.58 133.66 151.306 131.297C152.119 130.155 152.661 128.842 152.89 127.458V127.434" stroke="#7C2BF1" stroke-width="1.3436" stroke-miterlimit="10"/>
<path d="M134.435 126.077L135.369 130.522" stroke="#7C2BF1" stroke-width="1.3436" stroke-miterlimit="10"/>
<path d="M147.652 114.763L149.064 124.14C149.203 125.058 149.667 125.895 150.372 126.5C151.076 127.104 151.974 127.436 152.902 127.435C157.297 128.147 161.633 129.187 165.873 130.545C182.436 135.888 192.631 150.809 195.511 167.481C196.709 174.462 196.798 181.783 195.294 188.726C194.439 192.633 193.203 197.023 190.332 199.949C186.603 203.765 180.881 202.194 176.476 200.469C162.797 195.149 151.421 185.685 141.597 174.849C136.345 169.054 129.558 164.409 129.558 164.409" stroke="#7C2BF1" stroke-width="1.3436" stroke-miterlimit="10"/>
<path d="M180.608 205.686C180.512 205.701 180.404 205.715 180.31 205.737H180.273L165.758 205.662L143.979 205.55C143.895 205.55 143.813 205.55 143.732 205.55C143.57 205.546 143.408 205.534 143.248 205.513C144.724 205.342 146.091 204.655 147.111 203.575C148.13 202.494 148.736 201.088 148.821 199.605C148.825 199.529 148.825 199.452 148.821 199.375V199.256C148.815 197.805 148.309 196.401 147.389 195.278C146.469 194.156 145.19 193.386 143.768 193.096C143.619 193.059 143.456 193.037 143.299 193.014C143.546 192.992 143.791 192.975 144.03 192.975L162.43 193.073L165.817 193.088L170.386 193.11C171.951 193.253 173.406 193.974 174.467 195.133C175.527 196.291 176.118 197.804 176.123 199.375C176.123 199.671 176.1 199.967 176.055 200.26C175.838 201.756 175.091 203.124 173.95 204.115C172.809 205.106 171.351 205.655 169.839 205.662H180.896C180.259 205.662 180.436 205.662 180.608 205.686Z" fill="white"/>
<path d="M151.166 213.276C151.58 213.693 152.073 214.023 152.617 214.248C153.16 214.473 153.743 214.588 154.331 214.586H143.642C141.601 214.586 140.487 214.088 139.675 213.276C138.84 212.437 138.37 211.304 138.367 210.121C138.367 207.672 140.375 205.664 143.642 205.664H154.331C153.448 205.663 152.585 205.923 151.851 206.413C151.117 206.903 150.544 207.599 150.207 208.414C149.869 209.229 149.78 210.127 149.953 210.992C150.125 211.858 150.551 212.652 151.176 213.276H151.166Z" fill="white"/>
<path d="M186.467 199.487C186.464 200.43 186.245 201.359 185.826 202.203C185.527 202.841 185.116 203.421 184.614 203.915C183.785 204.736 182.744 205.311 181.608 205.574C181.139 205.682 180.66 205.737 180.179 205.738C180.277 205.715 180.384 205.701 180.477 205.687C180.306 205.67 180.128 205.664 180.767 205.664H169.709C171.221 205.658 172.681 205.109 173.823 204.118C174.964 203.126 175.712 201.757 175.929 200.26C175.974 199.967 175.996 199.671 175.996 199.375C175.991 197.804 175.401 196.291 174.339 195.132C173.278 193.973 171.823 193.253 170.258 193.11L176.227 193.141L180.214 193.163C181.881 193.177 183.473 193.85 184.645 195.035C185.817 196.22 186.472 197.821 186.467 199.487Z" fill="white"/>
<path d="M186.466 199.486C186.454 201.154 185.781 202.748 184.596 203.92C183.41 205.093 181.808 205.747 180.14 205.741L143.834 205.553C143.591 205.553 143.348 205.535 143.103 205.51C144.633 205.337 146.047 204.608 147.076 203.462C148.105 202.316 148.678 200.832 148.686 199.292C148.694 197.752 148.137 196.262 147.12 195.105C146.103 193.949 144.697 193.205 143.168 193.016C143.411 192.99 143.655 192.978 143.899 192.979L180.206 193.167C181.873 193.178 183.468 193.849 184.641 195.034C185.814 196.218 186.471 197.819 186.466 199.486Z" stroke="#7C2BF1" stroke-width="1.3436" stroke-linecap="square" stroke-linejoin="round"/>
<path d="M175.992 199.373C175.989 201.04 175.325 202.637 174.146 203.816C172.968 204.995 171.37 205.658 169.703 205.662H143.871C143.627 205.66 143.383 205.647 143.14 205.621C144.669 205.439 146.079 204.703 147.102 203.552C148.125 202.4 148.69 200.914 148.69 199.374C148.69 197.833 148.125 196.347 147.102 195.195C146.079 194.044 144.669 193.308 143.14 193.126C143.383 193.104 143.628 193.087 143.871 193.087H169.703C171.369 193.091 172.966 193.754 174.145 194.932C175.323 196.11 175.987 197.706 175.992 199.373Z" stroke="#7C2BF1" stroke-width="1.3436" stroke-linecap="square" stroke-linejoin="round"/>
<path d="M138.367 210.122C138.366 210.707 138.482 211.287 138.706 211.828C138.93 212.368 139.258 212.859 139.673 213.273C140.489 214.089 141.597 214.585 143.64 214.585H180.765C180.126 214.585 180.3 214.573 180.473 214.556C179.387 214.429 178.385 213.906 177.658 213.089C176.932 212.272 176.53 211.216 176.53 210.122C176.53 209.028 176.932 207.973 177.658 207.155C178.385 206.338 179.387 205.816 180.473 205.688C180.3 205.671 180.126 205.659 180.765 205.659H143.64C140.371 205.661 138.367 207.669 138.367 210.122Z" stroke="#7C2BF1" stroke-width="1.3436" stroke-linecap="square" stroke-linejoin="round"/>
<path d="M149.855 210.122C149.858 211.305 150.329 212.439 151.166 213.275C152.002 214.111 153.136 214.582 154.318 214.585H179.955C180.126 214.585 180.3 214.573 180.473 214.556C179.387 214.429 178.385 213.906 177.658 213.089C176.932 212.272 176.53 211.216 176.53 210.122C176.53 209.028 176.932 207.973 177.658 207.155C178.385 206.338 179.387 205.816 180.473 205.688C180.3 205.671 180.126 205.659 179.955 205.659H154.318C153.136 205.662 152.002 206.134 151.166 206.97C150.33 207.806 149.859 208.939 149.855 210.122Z" stroke="#7C2BF1" stroke-width="1.3436" stroke-linecap="square" stroke-linejoin="round"/>
<path d="M59.5659 125.337L59.7455 125.388L59.6782 125.65C59.6355 125.548 59.598 125.443 59.5659 125.337Z" fill="#CBAAF9"/>
<path d="M69.9747 199.279L56.6841 165.229C56.5194 164.57 56.5072 163.882 56.648 163.218C56.789 162.554 57.0796 161.93 57.4975 161.395C57.9156 160.86 58.4501 160.427 59.0606 160.129C59.671 159.831 60.3413 159.677 61.0205 159.677H113.812C114.997 159.676 116.148 160.075 117.079 160.809C118.01 161.543 118.667 162.568 118.944 163.721L133.493 197.763C133.651 198.419 133.657 199.103 133.512 199.763C133.367 200.422 133.075 201.04 132.657 201.571C132.238 202.101 131.706 202.53 131.098 202.824C130.491 203.119 129.824 203.272 129.149 203.273H75.0947C73.918 203.273 72.7751 202.881 71.8474 202.157C70.9197 201.433 70.2606 200.42 69.9747 199.279Z" stroke="#7C2BF1" stroke-width="1.3436" stroke-linecap="square" stroke-linejoin="round"/>
<path d="M71.9198 197.907L59.6577 166.481C59.5061 165.873 59.495 165.239 59.6252 164.626C59.7554 164.013 60.0236 163.438 60.4095 162.944C60.7951 162.451 61.2884 162.051 61.8514 161.777C62.4146 161.502 63.0329 161.359 63.6594 161.359H112.361C113.454 161.359 114.516 161.727 115.375 162.403C116.234 163.08 116.84 164.026 117.095 165.089L130.521 196.497C130.665 197.103 130.671 197.734 130.537 198.342C130.403 198.951 130.133 199.521 129.747 200.01C129.362 200.499 128.87 200.895 128.309 201.166C127.749 201.439 127.134 201.58 126.511 201.58H76.6418C75.5581 201.581 74.5051 201.22 73.6499 200.555C72.7944 199.889 72.1857 198.958 71.9198 197.907Z" fill="#7C2BF1"/>
<path d="M76.4395 190.873C74.905 190.859 73.5684 189.62 73.2235 187.896C72.5419 184.505 72.3624 179.26 77.3354 178.115C83.5491 176.687 88.3282 183.454 90.6709 187.731C91.4586 189.159 90.5668 190.996 89.0996 190.996L76.4395 190.873Z" fill="white"/>
<path d="M78.491 175.236C79.8101 174.358 79.8305 172.07 78.5361 170.125C77.242 168.18 75.1234 167.315 73.8041 168.193C72.4848 169.071 72.4646 171.359 73.7588 173.304C75.0532 175.249 77.1718 176.114 78.491 175.236Z" fill="white"/>
<path d="M108.298 176.073H96.8461C96.322 176.072 95.8096 175.918 95.3713 175.631C94.933 175.344 94.5875 174.936 94.3769 174.456C94.2957 174.278 94.2608 174.082 94.2759 173.886C94.2908 173.69 94.3551 173.502 94.4626 173.337C94.5702 173.173 94.7175 173.039 94.8909 172.947C95.0644 172.855 95.2581 172.809 95.4544 172.812H107.629C107.055 173.777 107.347 175.118 108.298 176.073Z" fill="white"/>
<path d="M115.704 174.893C115.703 175.205 115.579 175.504 115.358 175.724C115.138 175.945 114.838 176.07 114.526 176.07H108.298C107.347 175.117 107.056 173.776 107.629 172.805H113.128C113.652 172.805 114.164 172.957 114.603 173.242C115.041 173.528 115.388 173.935 115.6 174.413C115.666 174.565 115.701 174.727 115.704 174.893Z" fill="#C1F672"/>
<path d="M112.839 176.074C112.806 176.136 112.769 176.195 112.726 176.251C111.91 177.368 110.137 177.476 108.759 176.468C108.597 176.347 108.443 176.216 108.298 176.074C107.347 175.121 107.056 173.78 107.629 172.809C107.661 172.747 107.699 172.687 107.741 172.631C108.557 171.507 110.323 171.407 111.7 172.407C111.866 172.531 112.022 172.667 112.167 172.815C113.11 173.764 113.404 175.096 112.839 176.074Z" fill="white"/>
<path d="M118.583 182.083C118.581 182.395 118.455 182.694 118.233 182.914C118.012 183.135 117.712 183.258 117.399 183.258H105.382C105.961 182.283 105.672 180.952 104.719 179.993H116.008C116.532 179.993 117.044 180.146 117.483 180.433C117.922 180.719 118.268 181.127 118.479 181.607C118.546 181.757 118.581 181.919 118.583 182.083Z" fill="#C1F672"/>
<path d="M105.382 183.258H99.7271C99.2037 183.259 98.6913 183.107 98.2526 182.822C97.8138 182.536 97.4675 182.129 97.2559 181.65C97.1892 181.501 97.1539 181.339 97.1519 181.175C97.1517 181.021 97.1819 180.868 97.2408 180.725C97.2998 180.582 97.3863 180.453 97.4955 180.343C97.6047 180.234 97.7345 180.147 97.8771 180.088C98.0199 180.03 98.1728 179.999 98.3273 180H104.719C105.671 180.952 105.967 182.283 105.382 183.258Z" fill="white"/>
<path d="M105.382 183.257C105.356 183.322 105.32 183.382 105.278 183.437C104.462 184.559 102.695 184.661 101.319 183.659C101.153 183.535 100.996 183.399 100.85 183.251C99.905 182.298 99.6153 180.968 100.181 179.986C100.213 179.924 100.251 179.864 100.293 179.807C101.109 178.691 102.882 178.582 104.258 179.593C104.422 179.711 104.576 179.843 104.719 179.986C105.672 180.952 105.968 182.282 105.382 183.257Z" fill="white"/>
<path d="M109.386 190.395H102.19C101.667 190.394 101.155 190.242 100.717 189.957C100.278 189.671 99.9315 189.265 99.7191 188.787C99.6381 188.608 99.6036 188.411 99.6187 188.215C99.634 188.019 99.6983 187.83 99.8058 187.665C99.9136 187.501 100.061 187.366 100.234 187.273C100.408 187.181 100.602 187.134 100.799 187.136H108.716C108.149 188.113 108.441 189.442 109.386 190.395Z" fill="#C1F672"/>
<path d="M121.046 189.227C121.044 189.537 120.92 189.835 120.7 190.053C120.479 190.272 120.181 190.395 119.871 190.394H109.386C108.441 189.441 108.149 188.111 108.717 187.129H118.471C118.995 187.129 119.508 187.282 119.947 187.569C120.385 187.855 120.731 188.263 120.942 188.743C121.009 188.896 121.045 189.06 121.046 189.227Z" fill="white"/>
<path d="M113.926 190.394C113.894 190.456 113.856 190.516 113.814 190.573C112.998 191.696 111.233 191.798 109.855 190.796C109.69 190.671 109.534 190.535 109.388 190.388C108.443 189.435 108.151 188.104 108.719 187.123C108.75 187.06 108.786 186.999 108.829 186.943C109.645 185.827 111.418 185.731 112.796 186.729C112.959 186.848 113.114 186.979 113.257 187.123C114.208 188.088 114.498 189.426 113.926 190.394Z" fill="white"/>
<path d="M179 125.5C182.323 119.684 208.5 78.5542 170 49.5005C160.169 42.0816 136.821 39.8069 130.539 43.0647C124.256 46.3225 110.318 59.0484 108.502 65.4475C106.687 71.8465 106.976 77.0851 97.0313 78.5541C89.0758 79.7293 87.4773 68.9995 79.17 65.4468C69.0955 61.1382 58.8157 68.9992 54.6619 73.1531" stroke="#7C2BF1" stroke-dasharray="8 8"/>
<path d="M108.416 203.861L109.13 214.371" stroke="#7C2BF1" stroke-width="1.22816"/>
<g clip-path="url(#clip0_7109_9733)">
<path d="M26.5132 137.173V156.702C26.5132 157.57 27.2089 158.268 28.0744 158.268H47.4392C48.831 158.268 49.5439 156.583 48.5593 155.578L29.1945 136.066C28.2103 135.062 26.5132 135.76 26.5132 137.173Z" fill="#CBAAF9"/>
<path d="M24.1203 138.943L27.226 135.845C27.5993 135.487 28.5835 135.878 28.9402 136.253L48.2707 155.901C48.5424 156.173 49.0174 157.212 48.4404 157.995L45.9285 160.396C45.64 160.805 45.3176 160.822 44.961 160.464L24.6634 140.595C24.2562 140.203 23.713 139.352 24.1203 138.943Z" fill="#CBAAF9"/>
<path d="M45.4532 161.707C45.1308 161.707 44.7065 161.605 44.2654 161.162L23.9837 141.31C23.8144 141.157 22.9995 140.306 22.9995 139.318C22.9995 138.91 23.1521 138.518 23.441 138.246L26.5299 135.147C27.4464 134.262 29.0419 134.943 29.6356 135.556L48.9661 155.203C49.4921 155.714 50.154 157.297 49.2375 158.574L49.1187 158.71L46.6578 161.06C46.2844 161.537 45.8601 161.673 45.5544 161.707H45.4532ZM25.019 139.437C25.0871 139.574 25.2058 139.744 25.3585 139.897L45.419 159.545L47.693 157.383C47.846 157.094 47.6424 156.668 47.5743 156.6L28.2438 136.952C28.1589 136.867 27.9214 136.765 27.7516 136.714L25.019 139.437Z" fill="#7C2BF1"/>
<path d="M40.413 157.587C39.683 157.587 39.2591 157.093 38.9024 156.65C38.8347 156.582 38.7837 156.497 38.6988 156.429L26.9882 144.545L26.9711 144.528C26.3431 143.813 26.0718 142.859 26.2415 141.923C26.4113 140.986 26.9711 140.169 27.8198 139.709C28.8212 139.148 30.1788 138.45 30.6203 138.296C30.9088 138.194 31.1634 138.075 31.4013 137.956C31.8934 137.734 32.3516 137.513 32.9286 137.513C34.3711 137.513 35.5422 138.773 38.5801 142.825C40.9223 145.958 43.8582 148.427 46.0135 150.248C46.7941 150.912 47.4731 151.474 47.9652 151.951C48.2876 152.274 48.4573 152.7 48.4406 153.176C48.3728 154.3 47.2185 155.407 46.7774 155.73L46.6248 155.849L41.4993 157.228C41.1936 157.4 40.8374 157.587 40.413 157.587Z" fill="#7C2BF1"/>
<path d="M40.4133 158.369C39.3389 158.369 38.7231 157.648 38.3151 157.171L38.2846 157.136C38.234 157.085 38.1765 157.028 38.1339 156.97L26.4043 145.064L26.3952 145.044C25.586 144.129 25.2511 142.945 25.4593 141.772C25.6697 140.602 26.3872 139.6 27.4273 139.022C28.3084 138.517 29.8209 137.742 30.334 137.554C30.5121 137.483 30.6685 137.414 30.8253 137.345L31.1492 137.203C31.6497 136.982 32.2168 136.732 32.9117 136.732C34.7801 136.732 36.1853 138.359 39.1802 142.354C41.4554 145.403 44.3464 147.835 46.4572 149.61L46.493 149.64C47.1586 150.195 47.9156 150.834 48.4873 151.37C48.9843 151.853 49.2333 152.509 49.1864 153.215C49.073 154.954 47.2473 156.328 47.229 156.34L46.9413 156.548L46.6193 156.64L41.7888 157.941L41.7621 157.958C41.3359 158.232 40.8822 158.369 40.4133 158.369ZM32.9117 138.279C32.495 138.279 32.1327 138.45 31.6737 138.666C31.4362 138.778 31.1671 138.905 30.8535 139.024C30.5098 139.138 29.1952 139.818 28.179 140.381C27.5548 140.725 27.1251 141.325 27.0003 142.026C26.8743 142.734 27.0734 143.453 27.5465 144L39.2658 155.893C39.3453 155.983 39.423 156.074 39.4945 156.158C39.8146 156.534 40.046 156.806 40.4129 156.806C40.6238 156.806 40.8403 156.714 41.1319 156.499L46.2399 155.12L46.2711 155.097C46.7925 154.712 47.583 153.818 47.6248 153.122C47.6397 152.872 47.5598 152.657 47.3931 152.5C46.8994 152.023 46.2147 151.445 45.422 150.776C43.2632 148.953 40.3064 146.456 37.9295 143.281C35.002 139.354 33.9234 138.279 32.9117 138.279Z" fill="#7C2BF1"/>
<path d="M37.2565 156.139C34.7446 156.139 32.1988 154.811 30.4507 152.598C27.5654 148.955 27.6841 144.034 30.7224 141.617C31.8087 140.748 33.1662 140.289 34.6258 140.289C37.1378 140.289 39.6832 141.617 41.4317 143.83C44.317 147.473 44.1982 152.394 41.1599 154.812C40.0737 155.68 38.7161 156.139 37.2565 156.139Z" fill="white"/>
<path d="M37.2565 156.921C34.5033 156.921 31.7272 155.487 29.8311 153.084C26.6874 149.116 26.8632 143.701 30.2223 141.011C31.4387 140.038 32.9558 139.524 34.6087 139.524C37.3452 139.524 40.1209 140.959 42.0345 143.362C43.5272 145.247 44.3311 147.498 44.2979 149.701C44.2648 152.06 43.3217 154.096 41.6429 155.434C40.4265 156.407 38.9095 156.921 37.2565 156.921ZM34.6087 141.07C33.3269 141.07 32.1444 141.468 31.1894 142.221C28.5047 144.368 28.4442 148.798 31.0539 152.096C32.6738 154.128 34.9924 155.341 37.2565 155.341C38.5384 155.341 39.7209 154.943 40.6758 154.19C43.3605 152.042 43.4211 147.613 40.8113 144.315C39.1915 142.283 36.8725 141.07 34.6087 141.07Z" fill="#7C2BF1"/>
<path d="M26.9883 138.382C26.9883 138.382 29.5341 136.356 31.2145 138.382C32.8944 140.408 31.7914 141.157 33.9806 141.668C36.1702 142.178 34.9142 144.511 36.2547 145.073C37.5956 145.634 40.2262 144.579 40.294 147.133C40.3621 149.687 40.7522 149.585 41.7536 150.419C42.772 151.253 45.233 149.517 45.4705 152.019C45.6912 154.539 45.4024 154.505 46.1152 155.357C47.3883 156.889 44.3671 157.842 42.4493 157.536C40.5315 157.246 41.5667 156.565 40.8032 155.935C40.0394 155.305 25.4439 139.029 25.4439 139.029C25.4439 139.029 25.4271 138.603 26.9883 138.382Z" fill="#C1F672"/>
<path d="M43.1965 158.37C42.8912 158.37 42.6024 158.353 42.331 158.302C41.0583 158.097 40.498 157.672 40.3793 156.736C40.3622 156.582 40.3622 156.582 40.3112 156.531C39.5477 155.901 27.3107 142.264 24.8669 139.54L24.6804 139.335L24.6633 139.046C24.6294 138.331 25.3084 137.854 26.666 137.632C27.8371 136.798 30.1789 135.913 31.8086 137.871C32.5721 138.807 32.8267 139.505 33.0136 140.016C33.2172 140.595 33.2511 140.68 34.1508 140.884C35.8989 141.293 36.1197 142.655 36.2552 143.489C36.34 144.069 36.4082 144.256 36.5608 144.324C36.8493 144.443 37.3243 144.46 37.7825 144.477C38.9875 144.528 41.024 144.596 41.0922 147.099C41.1432 148.92 41.2787 149.023 41.8728 149.482C41.9915 149.584 42.1274 149.687 42.28 149.806C42.4159 149.925 42.9419 149.874 43.2814 149.84C44.1811 149.755 46.0647 149.602 46.2683 151.951C46.3364 152.717 46.3532 153.263 46.3699 153.654C46.4038 154.454 46.4038 154.454 46.7261 154.846C47.2525 155.476 47.3712 156.208 47.0146 156.838C46.387 157.91 44.6222 158.37 43.1965 158.37ZM41.9405 156.599C42.0083 156.633 42.1951 156.701 42.5685 156.752C43.9771 156.974 45.5215 156.395 45.6403 156.054C45.6403 156.054 45.6235 155.986 45.5215 155.867C44.8936 155.118 44.8426 154.76 44.8087 153.739C44.7919 153.365 44.7748 152.836 44.7071 152.105C44.6393 151.373 44.5373 151.321 43.4172 151.423C42.7044 151.491 41.9066 151.56 41.2787 151.032C41.1428 150.93 41.024 150.827 40.9224 150.742C39.9549 149.993 39.5987 149.516 39.531 147.15C39.5138 146.213 39.1747 146.111 37.749 146.06C37.1549 146.043 36.5269 146.009 35.9838 145.787C34.9824 145.379 34.8469 144.426 34.7278 143.744C34.5919 142.927 34.5242 142.587 33.8285 142.433C32.233 142.059 31.8935 141.463 31.5711 140.561C31.4014 140.118 31.2317 139.607 30.6375 138.892C29.4664 137.479 27.5829 138.943 27.5147 139.011L27.345 139.147L27.1414 139.181C26.9888 139.199 26.8529 139.233 26.7341 139.25C32.5215 145.702 40.7359 154.811 41.3468 155.339C41.8731 155.765 41.9409 156.275 41.9748 156.548C41.9238 156.548 41.9405 156.565 41.9405 156.599Z" fill="#7C2BF1"/>
<path d="M23.9165 139.727V159.256C23.9165 160.124 24.6122 160.822 25.4777 160.822H44.8425C46.2339 160.822 46.9472 159.137 45.9626 158.133L26.5982 138.621C25.614 137.633 23.9165 138.332 23.9165 139.727Z" fill="#CBAAF9"/>
<path d="M25.4784 161.621C24.1878 161.621 23.1377 160.568 23.1377 159.273V139.728C23.1377 138.763 23.7067 137.909 24.5878 137.552C24.8721 137.435 25.1712 137.376 25.4787 137.376C26.1018 137.376 26.7107 137.628 27.1492 138.068L46.5136 157.596C47.1983 158.283 47.3897 159.267 47.0129 160.163C46.6357 161.062 45.8045 161.621 44.8431 161.621H25.4784V161.621ZM25.4951 138.943C25.3691 138.943 25.2675 138.978 25.207 138.999L25.1659 139.015C24.7777 139.21 24.6962 139.519 24.6962 139.744V159.272C24.6962 159.707 25.062 160.074 25.4955 160.074H44.8599C45.0844 160.074 45.3931 159.992 45.5868 159.602C45.6728 159.43 45.7375 159.05 45.4342 158.724L26.0481 139.173C25.8978 139.022 25.7063 138.943 25.4951 138.943Z" fill="#7C2BF1"/>
<path d="M36.7983 142.996C36.7983 143.24 36.9959 143.439 37.2395 143.439C37.483 143.439 37.6806 143.241 37.6806 142.996C37.6806 142.752 37.483 142.553 37.2395 142.553C36.9959 142.553 36.7983 142.752 36.7983 142.996Z" fill="white"/>
<path d="M26.2925 153.756C26.2925 154.236 26.6799 154.624 27.158 154.624C27.636 154.624 28.0234 154.236 28.0234 153.756C28.0234 153.446 27.8586 153.159 27.5907 153.004C27.3231 152.849 26.9928 152.849 26.7252 153.004C26.4573 153.159 26.2925 153.446 26.2925 153.756Z" fill="#CBAAF9"/>
<path d="M28.2104 156.89C28.2104 157.2 28.3752 157.486 28.6432 157.642C28.9107 157.797 29.2411 157.797 29.5087 157.642C29.7766 157.486 29.9414 157.2 29.9414 156.89C29.9414 156.58 29.7766 156.293 29.5087 156.138C29.2411 155.983 28.9107 155.983 28.6432 156.138C28.3752 156.293 28.2104 156.58 28.2104 156.89Z" fill="#CBAAF9"/>
<path d="M36.4248 154.693C36.4248 155.173 36.8123 155.561 37.2903 155.561C37.7683 155.561 38.1558 155.173 38.1558 154.693C38.1558 154.214 37.7683 153.825 37.2903 153.825C36.8123 153.825 36.4248 154.214 36.4248 154.693Z" fill="#CBAAF9"/>
<path d="M26.9375 146.929C26.9375 147.408 27.3253 147.797 27.803 147.797C28.281 147.797 28.6685 147.408 28.6685 146.929C28.6685 146.618 28.5037 146.332 28.2357 146.177C27.9678 146.022 27.6378 146.022 27.3702 146.177C27.1027 146.332 26.9375 146.618 26.9375 146.929Z" fill="#CBAAF9"/>
</g>
<g clip-path="url(#clip1_7109_9733)">
<path d="M81.7782 118.343C81.1886 118.185 80.8442 117.578 81.003 116.986L82.4589 111.585C82.5349 111.301 82.7197 111.06 82.9724 110.913C83.2252 110.767 83.5252 110.726 83.8076 110.802L95.5395 113.959C95.8216 114.034 96.0615 114.219 96.207 114.473C96.3526 114.726 96.3919 115.028 96.3159 115.311L94.8589 120.716C94.7002 121.308 94.0952 121.656 93.5101 121.499C93.5043 121.503 81.7782 118.343 81.7782 118.343Z" fill="white"/>
<path d="M83.055 110.633L96.3472 114.537L94.4465 120.599L81.1542 116.696L83.055 110.633ZM84.0941 109.734C83.5295 109.583 82.9296 109.664 82.4237 109.957C81.9176 110.251 81.5486 110.734 81.3924 111.3L79.9376 116.696C79.6212 117.877 80.3147 119.091 81.4894 119.406L93.217 122.562L93.2211 122.563C93.7857 122.714 94.3856 122.634 94.8915 122.34C95.3972 122.046 95.7666 121.564 95.9232 120.998L97.378 115.601C97.6944 114.421 97.001 113.206 95.8263 112.891L84.0941 109.734Z" fill="#7C2BF1"/>
<path d="M80.9008 115.773L76.3861 118.924L71.7042 136.396L86.8555 140.456L91.5374 122.983L95.5372 119.695L80.9008 115.773V115.773Z" fill="white"/>
<path d="M86.5689 141.525L71.4177 137.465C70.8285 137.307 70.4835 136.701 70.6412 136.112L75.3231 118.639C75.3913 118.385 75.5431 118.166 75.762 118.015L80.2756 114.869C80.544 114.682 80.8754 114.623 81.1911 114.707L95.8279 118.629C96.2262 118.736 96.5312 119.059 96.619 119.463C96.7056 119.87 96.5571 120.291 96.2376 120.554L92.5128 123.612L87.9227 140.743C87.8466 141.027 87.6618 141.268 87.4091 141.415C87.1502 141.565 86.8514 141.601 86.5689 141.525ZM72.0154 136.112L85.7231 139.707L90.7077 123.612C90.7681 123.387 91.9097 122.582 92.0873 122.433L95.2769 119.769L80.7859 115.87L76.1692 119.463L72.0154 136.112Z" fill="#7C2BF1"/>
<path d="M95.8061 119.687L91.4419 123.338L86.855 140.456L93.3678 142.202L97.9983 124.92L95.8061 119.687Z" fill="#EFEFEF"/>
<path d="M93.0811 143.275L86.5679 141.53C85.9787 141.372 85.6339 140.765 85.7914 140.177L90.3795 123.054C90.4388 122.833 91.5308 123.055 91.7074 122.909L96.0717 119.258C96.3405 119.035 95.7302 118.527 96.0717 118.614C96.4155 118.692 96.6884 118.935 96.8245 119.258L99.0167 124.492C99.1117 124.718 99.1291 124.969 99.0654 125.207L94.4349 142.488C94.2723 143.08 93.6666 143.432 93.0811 143.275ZM86.9694 140.177L93.2002 141.784L97.9663 125.012L96.3016 120.718L92.4132 123.698L86.9694 140.177Z" fill="#7C2BF1"/>
<path d="M91.4198 123.422L76.2686 119.362L73.941 128.049L89.0923 132.108L91.4198 123.422Z" fill="#CBAAF9"/>
<path d="M88.2183 131.815L73.6165 127.903C73.0486 127.75 72.7209 128.353 72.8786 127.764L75.206 119.078C75.3648 118.485 75.9524 118.133 76.5163 118.284L91.6317 122.58C92.2 122.733 92.5272 123.335 92.3696 123.923L89.5284 132.226C89.3701 132.818 88.7865 131.967 88.2183 131.815ZM74.1222 126.812L88.7668 130.569L90.7769 123.35L76.1323 119.593L74.1222 126.812Z" fill="#7C2BF1"/>
</g>
<path d="M72.9092 202.841V215.085" stroke="#7C2BF1" stroke-width="1.22816"/>
<path d="M195.416 39.4075C234.172 74.4284 251.914 129.747 231.353 178.341C211.631 224.952 160.166 243.751 110.801 239.387C62.5077 235.119 18.538 206.301 5.62617 158.39C-8.81068 104.82 4.00416 43.6753 50.2454 14.6859C96.5153 -14.3215 154.728 2.64023 195.416 39.4075Z" fill="url(#paint0_linear_7109_9733)"/>
<defs>
<linearGradient id="paint0_linear_7109_9733" x1="123.509" y1="0.503053" x2="98.6702" y2="242.853" gradientUnits="userSpaceOnUse">
<stop stop-color="#F0FDDD"/>
<stop offset="0.833164" stop-color="#F0FDDD" stop-opacity="0"/>
</linearGradient>
<clipPath id="clip0_7109_9733">
<rect width="26.6943" height="26.9845" fill="white" transform="translate(23 134.723)"/>
</clipPath>
<clipPath id="clip1_7109_9733">
<rect width="24.6332" height="30.0717" fill="white" transform="translate(78.1372 108.138) rotate(15)"/>
</clipPath>
</defs>
</svg>
